<?xml version="1.0" encoding="utf-8" standalone="no"?>
<!DOCTYPE svg PUBLIC "-//W3C//DTD SVG 1.1//EN"
  "http://www.w3.org/Graphics/SVG/1.1/DTD/svg11.dtd">
<svg xmlns:xlink="http://www.w3.org/1999/xlink" width="399.13625pt" height="292.879062pt" viewBox="0 0 399.13625 292.879062" xmlns="http://www.w3.org/2000/svg" version="1.1">
 <metadata>
  <rdf:RDF xmlns:dc="http://purl.org/dc/elements/1.1/" xmlns:cc="http://creativecommons.org/ns#" xmlns:rdf="http://www.w3.org/1999/02/22-rdf-syntax-ns#">
   <cc:Work>
    <dc:type rdf:resource="http://purl.org/dc/dcmitype/StillImage"/>
    <dc:date>2024-01-25T13:15:33.339906</dc:date>
    <dc:format>image/svg+xml</dc:format>
    <dc:creator>
     <cc:Agent>
      <dc:title>Matplotlib v3.8.1, https://matplotlib.org/</dc:title>
     </cc:Agent>
    </dc:creator>
   </cc:Work>
  </rdf:RDF>
 </metadata>
 <defs>
  <style type="text/css">*{stroke-linejoin: round; stroke-linecap: butt}</style>
 </defs>
 <g id="figure_1">
  <g id="patch_1">
   <path d="M 0 292.879062 
L 399.13625 292.879062 
L 399.13625 0 
L 0 0 
z
" style="fill: #ffffff"/>
  </g>
  <g id="axes_1">
   <g id="patch_2">
    <path d="M 53.38625 242.370937 
L 388.18625 242.370937 
L 388.18625 20.610937 
L 53.38625 20.610937 
z
" style="fill: #ffffff"/>
   </g>
   <g id="patch_3">
    <path d="M 53.38625 242.370937 
L 60.08225 242.370937 
L 60.08225 76.979429 
L 53.38625 76.979429 
z
" clip-path="url(#p50e89fbce3)" style="fill: #348abd"/>
   </g>
   <g id="patch_4">
    <path d="M 60.08225 242.370937 
L 66.77825 242.370937 
L 66.77825 38.698756 
L 60.08225 38.698756 
z
" clip-path="url(#p50e89fbce3)" style="fill: #348abd"/>
   </g>
   <g id="patch_5">
    <path d="M 66.77825 242.370937 
L 73.47425 242.370937 
L 73.47425 31.170938 
L 66.77825 31.170938 
z
" clip-path="url(#p50e89fbce3)" style="fill: #348abd"/>
   </g>
   <g id="patch_6">
    <path d="M 73.47425 242.370937 
L 80.17025 242.370937 
L 80.17025 41.65707 
L 73.47425 41.65707 
z
" clip-path="url(#p50e89fbce3)" style="fill: #348abd"/>
   </g>
   <g id="patch_7">
    <path d="M 80.17025 242.370937 
L 86.86625 242.370937 
L 86.86625 58.231924 
L 80.17025 58.231924 
z
" clip-path="url(#p50e89fbce3)" style="fill: #348abd"/>
   </g>
   <g id="patch_8">
    <path d="M 86.86625 242.370937 
L 93.56225 242.370937 
L 93.56225 75.745173 
L 86.86625 75.745173 
z
" clip-path="url(#p50e89fbce3)" style="fill: #348abd"/>
   </g>
   <g id="patch_9">
    <path d="M 93.56225 242.370937 
L 100.25825 242.370937 
L 100.25825 92.236686 
L 93.56225 92.236686 
z
" clip-path="url(#p50e89fbce3)" style="fill: #348abd"/>
   </g>
   <g id="patch_10">
    <path d="M 100.25825 242.370937 
L 106.95425 242.370937 
L 106.95425 106.953598 
L 100.25825 106.953598 
z
" clip-path="url(#p50e89fbce3)" style="fill: #348abd"/>
   </g>
   <g id="patch_11">
    <path d="M 106.95425 242.370937 
L 113.65025 242.370937 
L 113.65025 119.628321 
L 106.95425 119.628321 
z
" clip-path="url(#p50e89fbce3)" style="fill: #348abd"/>
   </g>
   <g id="patch_12">
    <path d="M 113.65025 242.370937 
L 120.34625 242.370937 
L 120.34625 130.304679 
L 113.65025 130.304679 
z
" clip-path="url(#p50e89fbce3)" style="fill: #348abd"/>
   </g>
   <g id="patch_13">
    <path d="M 120.34625 242.370937 
L 127.04225 242.370937 
L 127.04225 139.084442 
L 120.34625 139.084442 
z
" clip-path="url(#p50e89fbce3)" style="fill: #348abd"/>
   </g>
   <g id="patch_14">
    <path d="M 127.04225 242.370937 
L 133.73825 242.370937 
L 133.73825 146.125137 
L 127.04225 146.125137 
z
" clip-path="url(#p50e89fbce3)" style="fill: #348abd"/>
   </g>
   <g id="patch_15">
    <path d="M 133.73825 242.370937 
L 140.43425 242.370937 
L 140.43425 151.575302 
L 133.73825 151.575302 
z
" clip-path="url(#p50e89fbce3)" style="fill: #348abd"/>
   </g>
   <g id="patch_16">
    <path d="M 140.43425 242.370937 
L 147.13025 242.370937 
L 147.13025 155.613699 
L 140.43425 155.613699 
z
" clip-path="url(#p50e89fbce3)" style="fill: #348abd"/>
   </g>
   <g id="patch_17">
    <path d="M 147.13025 242.370937 
L 153.82625 242.370937 
L 153.82625 158.44615 
L 147.13025 158.44615 
z
" clip-path="url(#p50e89fbce3)" style="fill: #348abd"/>
   </g>
   <g id="patch_18">
    <path d="M 153.82625 242.370937 
L 160.52225 242.370937 
L 160.52225 160.1919 
L 153.82625 160.1919 
z
" clip-path="url(#p50e89fbce3)" style="fill: #348abd"/>
   </g>
   <g id="patch_19">
    <path d="M 160.52225 242.370937 
L 167.21825 242.370937 
L 167.21825 161.14243 
L 160.52225 161.14243 
z
" clip-path="url(#p50e89fbce3)" style="fill: #348abd"/>
   </g>
   <g id="patch_20">
    <path d="M 167.21825 242.370937 
L 173.91425 242.370937 
L 173.91425 161.446091 
L 167.21825 161.446091 
z
" clip-path="url(#p50e89fbce3)" style="fill: #348abd"/>
   </g>
   <g id="patch_21">
    <path d="M 173.91425 242.370937 
L 180.61025 242.370937 
L 180.61025 161.33952 
L 173.91425 161.33952 
z
" clip-path="url(#p50e89fbce3)" style="fill: #348abd"/>
   </g>
   <g id="patch_22">
    <path d="M 180.61025 242.370937 
L 187.30625 242.370937 
L 187.30625 160.996212 
L 180.61025 160.996212 
z
" clip-path="url(#p50e89fbce3)" style="fill: #348abd"/>
   </g>
   <g id="patch_23">
    <path d="M 187.30625 242.370937 
L 194.00225 242.370937 
L 194.00225 160.62519 
L 187.30625 160.62519 
z
" clip-path="url(#p50e89fbce3)" style="fill: #348abd"/>
   </g>
   <g id="patch_24">
    <path d="M 194.00225 242.370937 
L 200.69825 242.370937 
L 200.69825 160.425284 
L 194.00225 160.425284 
z
" clip-path="url(#p50e89fbce3)" style="fill: #348abd"/>
   </g>
   <g id="patch_25">
    <path d="M 200.69825 242.370937 
L 207.39425 242.370937 
L 207.39425 160.586312 
L 200.69825 160.586312 
z
" clip-path="url(#p50e89fbce3)" style="fill: #348abd"/>
   </g>
   <g id="patch_26">
    <path d="M 207.39425 242.370937 
L 214.09025 242.370937 
L 214.09025 161.187649 
L 207.39425 161.187649 
z
" clip-path="url(#p50e89fbce3)" style="fill: #348abd"/>
   </g>
   <g id="patch_27">
    <path d="M 214.09025 242.370937 
L 220.78625 242.370937 
L 220.78625 162.396285 
L 214.09025 162.396285 
z
" clip-path="url(#p50e89fbce3)" style="fill: #348abd"/>
   </g>
   <g id="patch_28">
    <path d="M 220.78625 242.370937 
L 227.48225 242.370937 
L 227.48225 164.226047 
L 220.78625 164.226047 
z
" clip-path="url(#p50e89fbce3)" style="fill: #348abd"/>
   </g>
   <g id="patch_29">
    <path d="M 227.48225 242.370937 
L 234.17825 242.370937 
L 234.17825 166.731055 
L 227.48225 166.731055 
z
" clip-path="url(#p50e89fbce3)" style="fill: #348abd"/>
   </g>
   <g id="patch_30">
    <path d="M 234.17825 242.370937 
L 240.87425 242.370937 
L 240.87425 169.888307 
L 234.17825 169.888307 
z
" clip-path="url(#p50e89fbce3)" style="fill: #348abd"/>
   </g>
   <g id="patch_31">
    <path d="M 240.87425 242.370937 
L 247.57025 242.370937 
L 247.57025 173.677967 
L 240.87425 173.677967 
z
" clip-path="url(#p50e89fbce3)" style="fill: #348abd"/>
   </g>
   <g id="patch_32">
    <path d="M 247.57025 242.370937 
L 254.26625 242.370937 
L 254.26625 177.928654 
L 247.57025 177.928654 
z
" clip-path="url(#p50e89fbce3)" style="fill: #348abd"/>
   </g>
   <g id="patch_33">
    <path d="M 254.26625 242.370937 
L 260.96225 242.370937 
L 260.96225 182.620071 
L 254.26625 182.620071 
z
" clip-path="url(#p50e89fbce3)" style="fill: #348abd"/>
   </g>
   <g id="patch_34">
    <path d="M 260.96225 242.370937 
L 267.65825 242.370937 
L 267.65825 187.592332 
L 260.96225 187.592332 
z
" clip-path="url(#p50e89fbce3)" style="fill: #348abd"/>
   </g>
   <g id="patch_35">
    <path d="M 267.65825 242.370937 
L 274.35425 242.370937 
L 274.35425 192.746193 
L 267.65825 192.746193 
z
" clip-path="url(#p50e89fbce3)" style="fill: #348abd"/>
   </g>
   <g id="patch_36">
    <path d="M 274.35425 242.370937 
L 281.05025 242.370937 
L 281.05025 197.915503 
L 274.35425 197.915503 
z
" clip-path="url(#p50e89fbce3)" style="fill: #348abd"/>
   </g>
   <g id="patch_37">
    <path d="M 281.05025 242.370937 
L 287.74625 242.370937 
L 287.74625 202.992001 
L 281.05025 202.992001 
z
" clip-path="url(#p50e89fbce3)" style="fill: #348abd"/>
   </g>
   <g id="patch_38">
    <path d="M 287.74625 242.370937 
L 294.44225 242.370937 
L 294.44225 207.850091 
L 287.74625 207.850091 
z
" clip-path="url(#p50e89fbce3)" style="fill: #348abd"/>
   </g>
   <g id="patch_39">
    <path d="M 294.44225 242.370937 
L 301.13825 242.370937 
L 301.13825 212.435874 
L 294.44225 212.435874 
z
" clip-path="url(#p50e89fbce3)" style="fill: #348abd"/>
   </g>
   <g id="patch_40">
    <path d="M 301.13825 242.370937 
L 307.83425 242.370937 
L 307.83425 216.660609 
L 301.13825 216.660609 
z
" clip-path="url(#p50e89fbce3)" style="fill: #348abd"/>
   </g>
   <g id="patch_41">
    <path d="M 307.83425 242.370937 
L 314.53025 242.370937 
L 314.53025 220.487455 
L 307.83425 220.487455 
z
" clip-path="url(#p50e89fbce3)" style="fill: #348abd"/>
   </g>
   <g id="patch_42">
    <path d="M 314.53025 242.370937 
L 321.22625 242.370937 
L 321.22625 223.873132 
L 314.53025 223.873132 
z
" clip-path="url(#p50e89fbce3)" style="fill: #348abd"/>
   </g>
   <g id="patch_43">
    <path d="M 321.22625 242.370937 
L 327.92225 242.370937 
L 327.92225 226.860095 
L 321.22625 226.860095 
z
" clip-path="url(#p50e89fbce3)" style="fill: #348abd"/>
   </g>
   <g id="patch_44">
    <path d="M 327.92225 242.370937 
L 334.61825 242.370937 
L 334.61825 229.417479 
L 327.92225 229.417479 
z
" clip-path="url(#p50e89fbce3)" style="fill: #348abd"/>
   </g>
   <g id="patch_45">
    <path d="M 334.61825 242.370937 
L 341.31425 242.370937 
L 341.31425 231.604199 
L 334.61825 231.604199 
z
" clip-path="url(#p50e89fbce3)" style="fill: #348abd"/>
   </g>
   <g id="patch_46">
    <path d="M 341.31425 242.370937 
L 348.01025 242.370937 
L 348.01025 233.418239 
L 341.31425 233.418239 
z
" clip-path="url(#p50e89fbce3)" style="fill: #348abd"/>
   </g>
   <g id="patch_47">
    <path d="M 348.01025 242.370937 
L 354.70625 242.370937 
L 354.70625 234.926741 
L 348.01025 234.926741 
z
" clip-path="url(#p50e89fbce3)" style="fill: #348abd"/>
   </g>
   <g id="patch_48">
    <path d="M 354.70625 242.370937 
L 361.40225 242.370937 
L 361.40225 236.153437 
L 354.70625 236.153437 
z
" clip-path="url(#p50e89fbce3)" style="fill: #348abd"/>
   </g>
   <g id="patch_49">
    <path d="M 361.40225 242.370937 
L 368.09825 242.370937 
L 368.09825 237.136831 
L 361.40225 237.136831 
z
" clip-path="url(#p50e89fbce3)" style="fill: #348abd"/>
   </g>
   <g id="patch_50">
    <path d="M 368.09825 242.370937 
L 374.79425 242.370937 
L 374.79425 237.937851 
L 368.09825 237.937851 
z
" clip-path="url(#p50e89fbce3)" style="fill: #348abd"/>
   </g>
   <g id="patch_51">
    <path d="M 374.79425 242.370937 
L 381.49025 242.370937 
L 381.49025 238.57257 
L 374.79425 238.57257 
z
" clip-path="url(#p50e89fbce3)" style="fill: #348abd"/>
   </g>
   <g id="patch_52">
    <path d="M 381.49025 242.370937 
L 388.18625 242.370937 
L 388.18625 239.077784 
L 381.49025 239.077784 
z
" clip-path="url(#p50e89fbce3)" style="fill: #348abd"/>
   </g>
   <g id="patch_53">
    <path d="M 53.38625 242.370937 
L 53.38625 20.610938 
" style="fill: none; stroke: #000000; stroke-linejoin: miter; stroke-linecap: square"/>
   </g>
   <g id="patch_54">
    <path d="M 388.18625 242.370937 
L 388.18625 20.610938 
" style="fill: none; stroke: #000000; stroke-linejoin: miter; stroke-linecap: square"/>
   </g>
   <g id="patch_55">
    <path d="M 53.38625 242.370937 
L 388.18625 242.370937 
" style="fill: none; stroke: #000000; stroke-linejoin: miter; stroke-linecap: square"/>
   </g>
   <g id="patch_56">
    <path d="M 53.38625 20.610937 
L 388.18625 20.610937 
" style="fill: none; stroke: #000000; stroke-linejoin: miter; stroke-linecap: square"/>
   </g>
   <g id="matplotlib.axis_1">
    <g id="xtick_1">
     <g id="line2d_1">
      <defs>
       <path id="m8dec1b3d1d" d="M 0 0 
L 0 -6 
" style="stroke: #1a1a1a; stroke-width: 0.8"/>
      </defs>
      <g>
       <use xlink:href="#m8dec1b3d1d" x="53.38625" y="242.370937" style="fill: #1a1a1a; stroke: #1a1a1a; stroke-width: 0.8"/>
      </g>
     </g>
     <g id="text_1">
      <!-- $\mathdefault{0}$ -->
      <g style="fill: #1a1a1a" transform="translate(49.63625 260.781875) scale(0.15 -0.15)">
       <defs>
        <path id="LatinModernMath-Regular-30" d="M 2944 2048 
C 2944 2560 2912 3072 2688 3546 
C 2394 4160 1869 4262 1600 4262 
C 1216 4262 749 4096 486 3501 
C 282 3059 250 2560 250 2048 
C 250 1568 275 992 538 506 
C 813 -13 1280 -141 1594 -141 
C 1939 -141 2426 -6 2707 602 
C 2912 1043 2944 1542 2944 2048 
z
M 2413 2125 
C 2413 1645 2413 1210 2342 800 
C 2246 192 1882 0 1594 0 
C 1344 0 966 160 851 774 
C 781 1158 781 1747 781 2125 
C 781 2534 781 2957 832 3302 
C 954 4064 1434 4122 1594 4122 
C 1805 4122 2227 4006 2349 3373 
C 2413 3014 2413 2528 2413 2125 
z
" transform="scale(0.015625)"/>
       </defs>
       <use xlink:href="#LatinModernMath-Regular-30" transform="translate(0 0.40625)"/>
      </g>
     </g>
    </g>
    <g id="xtick_2">
     <g id="line2d_2">
      <g>
       <use xlink:href="#m8dec1b3d1d" x="109.18625" y="242.370937" style="fill: #1a1a1a; stroke: #1a1a1a; stroke-width: 0.8"/>
      </g>
     </g>
     <g id="text_2">
      <!-- $\mathdefault{1}$ -->
      <g style="fill: #1a1a1a" transform="translate(105.43625 260.781875) scale(0.15 -0.15)">
       <defs>
        <path id="LatinModernMath-Regular-31" d="M 2682 0 
L 2682 198 
L 2477 198 
C 1901 198 1882 269 1882 506 
L 1882 4096 
C 1882 4250 1882 4262 1734 4262 
C 1338 3853 774 3853 570 3853 
L 570 3654 
C 698 3654 1075 3654 1408 3821 
L 1408 506 
C 1408 275 1389 198 813 198 
L 608 198 
L 608 0 
C 832 19 1389 19 1645 19 
C 1901 19 2458 19 2682 0 
z
" transform="scale(0.015625)"/>
       </defs>
       <use xlink:href="#LatinModernMath-Regular-31" transform="translate(0 0.40625)"/>
      </g>
     </g>
    </g>
    <g id="xtick_3">
     <g id="line2d_3">
      <g>
       <use xlink:href="#m8dec1b3d1d" x="164.98625" y="242.370937" style="fill: #1a1a1a; stroke: #1a1a1a; stroke-width: 0.8"/>
      </g>
     </g>
     <g id="text_3">
      <!-- $\mathdefault{2}$ -->
      <g style="fill: #1a1a1a" transform="translate(161.23625 260.781875) scale(0.15 -0.15)">
       <defs>
        <path id="LatinModernMath-Regular-32" d="M 2874 1114 
L 2714 1114 
C 2682 922 2637 640 2573 544 
C 2528 493 2106 493 1965 493 
L 813 493 
L 1491 1152 
C 2490 2035 2874 2381 2874 3021 
C 2874 3750 2298 4262 1517 4262 
C 794 4262 320 3674 320 3104 
C 320 2746 640 2746 659 2746 
C 768 2746 992 2822 992 3085 
C 992 3251 877 3418 653 3418 
C 602 3418 589 3418 570 3411 
C 717 3827 1062 4064 1434 4064 
C 2016 4064 2291 3546 2291 3021 
C 2291 2509 1971 2003 1619 1606 
L 390 237 
C 320 166 320 154 320 0 
L 2694 0 
L 2874 1114 
z
" transform="scale(0.015625)"/>
       </defs>
       <use xlink:href="#LatinModernMath-Regular-32" transform="translate(0 0.40625)"/>
      </g>
     </g>
    </g>
    <g id="xtick_4">
     <g id="line2d_4">
      <g>
       <use xlink:href="#m8dec1b3d1d" x="220.78625" y="242.370937" style="fill: #1a1a1a; stroke: #1a1a1a; stroke-width: 0.8"/>
      </g>
     </g>
     <g id="text_4">
      <!-- $\mathdefault{3}$ -->
      <g style="fill: #1a1a1a" transform="translate(217.03625 260.781875) scale(0.15 -0.15)">
       <defs>
        <path id="LatinModernMath-Regular-33" d="M 2925 1094 
C 2925 1619 2522 2118 1856 2253 
C 2381 2426 2752 2874 2752 3379 
C 2752 3904 2189 4262 1574 4262 
C 928 4262 442 3878 442 3392 
C 442 3181 582 3059 768 3059 
C 966 3059 1094 3200 1094 3386 
C 1094 3706 794 3706 698 3706 
C 896 4019 1318 4102 1549 4102 
C 1811 4102 2163 3962 2163 3386 
C 2163 3309 2150 2938 1984 2656 
C 1792 2349 1574 2330 1414 2323 
C 1363 2317 1210 2304 1165 2304 
C 1114 2298 1069 2291 1069 2227 
C 1069 2157 1114 2157 1222 2157 
L 1504 2157 
C 2029 2157 2266 1722 2266 1094 
C 2266 224 1824 38 1542 38 
C 1267 38 787 147 563 525 
C 787 493 986 634 986 877 
C 986 1107 813 1235 627 1235 
C 474 1235 269 1146 269 864 
C 269 282 864 -141 1562 -141 
C 2342 -141 2925 442 2925 1094 
z
" transform="scale(0.015625)"/>
       </defs>
       <use xlink:href="#LatinModernMath-Regular-33" transform="translate(0 0.40625)"/>
      </g>
     </g>
    </g>
    <g id="xtick_5">
     <g id="line2d_5">
      <g>
       <use xlink:href="#m8dec1b3d1d" x="276.58625" y="242.370937" style="fill: #1a1a1a; stroke: #1a1a1a; stroke-width: 0.8"/>
      </g>
     </g>
     <g id="text_5">
      <!-- $\mathdefault{4}$ -->
      <g style="fill: #1a1a1a" transform="translate(272.83625 260.781875) scale(0.15 -0.15)">
       <defs>
        <path id="LatinModernMath-Regular-34" d="M 3014 1056 
L 3014 1254 
L 2374 1254 
L 2374 4166 
C 2374 4294 2374 4333 2272 4333 
C 2214 4333 2195 4333 2144 4256 
L 179 1254 
L 179 1056 
L 1882 1056 
L 1882 499 
C 1882 269 1869 198 1395 198 
L 1261 198 
L 1261 0 
C 1523 19 1856 19 2125 19 
C 2394 19 2733 19 2995 0 
L 2995 198 
L 2861 198 
C 2387 198 2374 269 2374 499 
L 2374 1056 
L 3014 1056 
z
M 1920 1254 
L 358 1254 
L 1920 3642 
L 1920 1254 
z
" transform="scale(0.015625)"/>
       </defs>
       <use xlink:href="#LatinModernMath-Regular-34" transform="translate(0 0.296875)"/>
      </g>
     </g>
    </g>
    <g id="xtick_6">
     <g id="line2d_6">
      <g>
       <use xlink:href="#m8dec1b3d1d" x="332.38625" y="242.370937" style="fill: #1a1a1a; stroke: #1a1a1a; stroke-width: 0.8"/>
      </g>
     </g>
     <g id="text_6">
      <!-- $\mathdefault{5}$ -->
      <g style="fill: #1a1a1a" transform="translate(328.63625 260.781875) scale(0.15 -0.15)">
       <defs>
        <path id="LatinModernMath-Regular-35" d="M 2874 1286 
C 2874 2048 2349 2688 1658 2688 
C 1350 2688 1075 2586 845 2362 
L 845 3610 
C 973 3571 1184 3526 1389 3526 
C 2176 3526 2624 4109 2624 4192 
C 2624 4230 2605 4262 2560 4262 
C 2560 4262 2541 4262 2509 4243 
C 2381 4186 2067 4058 1638 4058 
C 1382 4058 1088 4102 787 4237 
C 736 4256 710 4256 710 4256 
C 646 4256 646 4205 646 4102 
L 646 2208 
C 646 2093 646 2042 736 2042 
C 781 2042 794 2061 819 2099 
C 890 2202 1126 2547 1645 2547 
C 1978 2547 2138 2253 2189 2138 
C 2291 1901 2304 1651 2304 1331 
C 2304 1107 2304 723 2150 454 
C 1997 205 1760 38 1466 38 
C 998 38 634 378 525 755 
C 544 749 563 742 634 742 
C 845 742 954 902 954 1056 
C 954 1210 845 1370 634 1370 
C 544 1370 320 1325 320 1030 
C 320 480 762 -141 1478 -141 
C 2221 -141 2874 474 2874 1286 
z
" transform="scale(0.015625)"/>
       </defs>
       <use xlink:href="#LatinModernMath-Regular-35" transform="translate(0 0.40625)"/>
      </g>
     </g>
    </g>
    <g id="xtick_7">
     <g id="line2d_7">
      <g>
       <use xlink:href="#m8dec1b3d1d" x="388.18625" y="242.370937" style="fill: #1a1a1a; stroke: #1a1a1a; stroke-width: 0.8"/>
      </g>
     </g>
     <g id="text_7">
      <!-- $\mathdefault{6}$ -->
      <g style="fill: #1a1a1a" transform="translate(384.43625 260.781875) scale(0.15 -0.15)">
       <defs>
        <path id="LatinModernMath-Regular-36" d="M 2925 1306 
C 2925 2118 2355 2733 1645 2733 
C 1210 2733 973 2406 845 2099 
L 845 2253 
C 845 3872 1638 4102 1965 4102 
C 2118 4102 2387 4064 2528 3846 
C 2432 3846 2176 3846 2176 3558 
C 2176 3360 2330 3264 2470 3264 
C 2573 3264 2765 3322 2765 3571 
C 2765 3955 2483 4262 1952 4262 
C 1133 4262 269 3437 269 2022 
C 269 314 1011 -141 1606 -141 
C 2317 -141 2925 461 2925 1306 
z
M 2349 1312 
C 2349 1005 2349 685 2240 454 
C 2048 70 1754 38 1606 38 
C 1203 38 1011 422 973 518 
C 858 819 858 1331 858 1446 
C 858 1946 1062 2586 1638 2586 
C 1741 2586 2035 2586 2234 2189 
C 2349 1952 2349 1626 2349 1312 
z
" transform="scale(0.015625)"/>
       </defs>
       <use xlink:href="#LatinModernMath-Regular-36" transform="translate(0 0.40625)"/>
      </g>
     </g>
    </g>
    <g id="xtick_8">
     <g id="line2d_8">
      <defs>
       <path id="m131efc0c90" d="M 0 0 
L 0 -3 
" style="stroke: #1a1a1a; stroke-width: 0.6"/>
      </defs>
      <g>
       <use xlink:href="#m131efc0c90" x="64.54625" y="242.370937" style="fill: #1a1a1a; stroke: #1a1a1a; stroke-width: 0.6"/>
      </g>
     </g>
    </g>
    <g id="xtick_9">
     <g id="line2d_9">
      <g>
       <use xlink:href="#m131efc0c90" x="75.70625" y="242.370937" style="fill: #1a1a1a; stroke: #1a1a1a; stroke-width: 0.6"/>
      </g>
     </g>
    </g>
    <g id="xtick_10">
     <g id="line2d_10">
      <g>
       <use xlink:href="#m131efc0c90" x="86.86625" y="242.370937" style="fill: #1a1a1a; stroke: #1a1a1a; stroke-width: 0.6"/>
      </g>
     </g>
    </g>
    <g id="xtick_11">
     <g id="line2d_11">
      <g>
       <use xlink:href="#m131efc0c90" x="98.02625" y="242.370937" style="fill: #1a1a1a; stroke: #1a1a1a; stroke-width: 0.6"/>
      </g>
     </g>
    </g>
    <g id="xtick_12">
     <g id="line2d_12">
      <g>
       <use xlink:href="#m131efc0c90" x="120.34625" y="242.370937" style="fill: #1a1a1a; stroke: #1a1a1a; stroke-width: 0.6"/>
      </g>
     </g>
    </g>
    <g id="xtick_13">
     <g id="line2d_13">
      <g>
       <use xlink:href="#m131efc0c90" x="131.50625" y="242.370937" style="fill: #1a1a1a; stroke: #1a1a1a; stroke-width: 0.6"/>
      </g>
     </g>
    </g>
    <g id="xtick_14">
     <g id="line2d_14">
      <g>
       <use xlink:href="#m131efc0c90" x="142.66625" y="242.370937" style="fill: #1a1a1a; stroke: #1a1a1a; stroke-width: 0.6"/>
      </g>
     </g>
    </g>
    <g id="xtick_15">
     <g id="line2d_15">
      <g>
       <use xlink:href="#m131efc0c90" x="153.82625" y="242.370937" style="fill: #1a1a1a; stroke: #1a1a1a; stroke-width: 0.6"/>
      </g>
     </g>
    </g>
    <g id="xtick_16">
     <g id="line2d_16">
      <g>
       <use xlink:href="#m131efc0c90" x="176.14625" y="242.370937" style="fill: #1a1a1a; stroke: #1a1a1a; stroke-width: 0.6"/>
      </g>
     </g>
    </g>
    <g id="xtick_17">
     <g id="line2d_17">
      <g>
       <use xlink:href="#m131efc0c90" x="187.30625" y="242.370937" style="fill: #1a1a1a; stroke: #1a1a1a; stroke-width: 0.6"/>
      </g>
     </g>
    </g>
    <g id="xtick_18">
     <g id="line2d_18">
      <g>
       <use xlink:href="#m131efc0c90" x="198.46625" y="242.370937" style="fill: #1a1a1a; stroke: #1a1a1a; stroke-width: 0.6"/>
      </g>
     </g>
    </g>
    <g id="xtick_19">
     <g id="line2d_19">
      <g>
       <use xlink:href="#m131efc0c90" x="209.62625" y="242.370937" style="fill: #1a1a1a; stroke: #1a1a1a; stroke-width: 0.6"/>
      </g>
     </g>
    </g>
    <g id="xtick_20">
     <g id="line2d_20">
      <g>
       <use xlink:href="#m131efc0c90" x="231.94625" y="242.370937" style="fill: #1a1a1a; stroke: #1a1a1a; stroke-width: 0.6"/>
      </g>
     </g>
    </g>
    <g id="xtick_21">
     <g id="line2d_21">
      <g>
       <use xlink:href="#m131efc0c90" x="243.10625" y="242.370937" style="fill: #1a1a1a; stroke: #1a1a1a; stroke-width: 0.6"/>
      </g>
     </g>
    </g>
    <g id="xtick_22">
     <g id="line2d_22">
      <g>
       <use xlink:href="#m131efc0c90" x="254.26625" y="242.370937" style="fill: #1a1a1a; stroke: #1a1a1a; stroke-width: 0.6"/>
      </g>
     </g>
    </g>
    <g id="xtick_23">
     <g id="line2d_23">
      <g>
       <use xlink:href="#m131efc0c90" x="265.42625" y="242.370937" style="fill: #1a1a1a; stroke: #1a1a1a; stroke-width: 0.6"/>
      </g>
     </g>
    </g>
    <g id="xtick_24">
     <g id="line2d_24">
      <g>
       <use xlink:href="#m131efc0c90" x="287.74625" y="242.370937" style="fill: #1a1a1a; stroke: #1a1a1a; stroke-width: 0.6"/>
      </g>
     </g>
    </g>
    <g id="xtick_25">
     <g id="line2d_25">
      <g>
       <use xlink:href="#m131efc0c90" x="298.90625" y="242.370937" style="fill: #1a1a1a; stroke: #1a1a1a; stroke-width: 0.6"/>
      </g>
     </g>
    </g>
    <g id="xtick_26">
     <g id="line2d_26">
      <g>
       <use xlink:href="#m131efc0c90" x="310.06625" y="242.370937" style="fill: #1a1a1a; stroke: #1a1a1a; stroke-width: 0.6"/>
      </g>
     </g>
    </g>
    <g id="xtick_27">
     <g id="line2d_27">
      <g>
       <use xlink:href="#m131efc0c90" x="321.22625" y="242.370937" style="fill: #1a1a1a; stroke: #1a1a1a; stroke-width: 0.6"/>
      </g>
     </g>
    </g>
    <g id="xtick_28">
     <g id="line2d_28">
      <g>
       <use xlink:href="#m131efc0c90" x="343.54625" y="242.370937" style="fill: #1a1a1a; stroke: #1a1a1a; stroke-width: 0.6"/>
      </g>
     </g>
    </g>
    <g id="xtick_29">
     <g id="line2d_29">
      <g>
       <use xlink:href="#m131efc0c90" x="354.70625" y="242.370937" style="fill: #1a1a1a; stroke: #1a1a1a; stroke-width: 0.6"/>
      </g>
     </g>
    </g>
    <g id="xtick_30">
     <g id="line2d_30">
      <g>
       <use xlink:href="#m131efc0c90" x="365.86625" y="242.370937" style="fill: #1a1a1a; stroke: #1a1a1a; stroke-width: 0.6"/>
      </g>
     </g>
    </g>
    <g id="xtick_31">
     <g id="line2d_31">
      <g>
       <use xlink:href="#m131efc0c90" x="377.02625" y="242.370937" style="fill: #1a1a1a; stroke: #1a1a1a; stroke-width: 0.6"/>
      </g>
     </g>
    </g>
    <g id="text_8">
     <!-- Variable -->
     <g style="fill: #1a1a1a" transform="translate(187.504531 282.185937) scale(0.18 -0.18)">
      <defs>
       <path id="LatinModernMath-Regular-56" d="M 4672 4173 
L 4672 4371 
C 4474 4358 4218 4352 4051 4352 
L 3322 4371 
L 3322 4173 
C 3654 4166 3789 4000 3789 3853 
C 3789 3802 3770 3763 3757 3725 
L 2586 640 
L 1363 3872 
C 1325 3962 1325 3987 1325 3987 
C 1325 4173 1690 4173 1850 4173 
L 1850 4371 
C 1619 4352 1178 4352 934 4352 
L 122 4371 
L 122 4173 
C 538 4173 659 4173 749 3930 
L 2234 0 
C 2278 -122 2310 -141 2394 -141 
C 2502 -141 2515 -109 2547 -19 
L 3974 3744 
C 4064 3981 4237 4166 4672 4173 
z
" transform="scale(0.015625)"/>
       <path id="LatinModernMath-Regular-61" d="M 3091 570 
L 3091 928 
L 2931 928 
L 2931 570 
C 2931 198 2771 160 2701 160 
C 2490 160 2464 448 2464 480 
L 2464 1760 
C 2464 2029 2464 2278 2234 2515 
C 1984 2765 1664 2867 1357 2867 
C 832 2867 390 2566 390 2144 
C 390 1952 518 1843 685 1843 
C 864 1843 979 1971 979 2138 
C 979 2214 947 2426 653 2432 
C 826 2656 1139 2726 1344 2726 
C 1658 2726 2022 2477 2022 1907 
L 2022 1670 
C 1696 1651 1248 1632 845 1440 
C 365 1222 205 890 205 608 
C 205 90 826 -70 1229 -70 
C 1651 -70 1946 186 2067 486 
C 2093 230 2266 -38 2566 -38 
C 2701 -38 3091 51 3091 570 
z
M 2022 896 
C 2022 288 1562 70 1274 70 
C 960 70 698 294 698 614 
C 698 966 966 1498 2022 1536 
L 2022 896 
z
" transform="scale(0.015625)"/>
       <path id="LatinModernMath-Regular-72" d="M 2330 2438 
C 2330 2643 2131 2829 1856 2829 
C 1389 2829 1158 2400 1069 2125 
L 1069 2829 
L 179 2758 
L 179 2560 
C 627 2560 678 2515 678 2202 
L 678 486 
C 678 198 608 198 179 198 
L 179 0 
L 909 19 
C 1165 19 1466 19 1722 0 
L 1722 198 
L 1587 198 
C 1114 198 1101 269 1101 499 
L 1101 1485 
C 1101 2118 1370 2688 1856 2688 
C 1901 2688 1914 2688 1926 2682 
C 1907 2675 1779 2598 1779 2432 
C 1779 2253 1914 2157 2054 2157 
C 2170 2157 2330 2234 2330 2438 
z
" transform="scale(0.015625)"/>
       <path id="LatinModernMath-Regular-69" d="M 1581 0 
L 1581 198 
C 1158 198 1133 230 1133 480 
L 1133 2829 
L 237 2758 
L 237 2560 
C 653 2560 710 2522 710 2208 
L 710 486 
C 710 198 640 198 211 198 
L 211 0 
L 915 19 
C 1139 19 1363 6 1581 0 
z
M 1229 3866 
C 1229 4038 1082 4205 890 4205 
C 672 4205 544 4026 544 3866 
C 544 3693 691 3526 883 3526 
C 1101 3526 1229 3706 1229 3866 
z
" transform="scale(0.015625)"/>
       <path id="LatinModernMath-Regular-62" d="M 3334 1382 
C 3334 2195 2707 2829 1978 2829 
C 1478 2829 1203 2528 1101 2413 
L 1101 4442 
L 179 4371 
L 179 4173 
C 627 4173 678 4128 678 3814 
L 678 0 
L 838 0 
L 1069 397 
C 1165 250 1434 -70 1907 -70 
C 2669 -70 3334 557 3334 1382 
z
M 2803 1389 
C 2803 1152 2790 768 2605 480 
C 2470 282 2227 70 1882 70 
C 1594 70 1363 224 1210 461 
C 1120 595 1120 614 1120 730 
L 1120 2048 
C 1120 2170 1120 2176 1190 2278 
C 1440 2637 1792 2688 1946 2688 
C 2234 2688 2464 2522 2618 2278 
C 2784 2016 2803 1651 2803 1389 
z
" transform="scale(0.015625)"/>
       <path id="LatinModernMath-Regular-6c" d="M 1632 0 
L 1632 198 
C 1203 198 1133 198 1133 486 
L 1133 4442 
L 211 4371 
L 211 4173 
C 659 4173 710 4128 710 3814 
L 710 486 
C 710 198 640 198 211 198 
L 211 0 
L 922 19 
L 1632 0 
z
" transform="scale(0.015625)"/>
       <path id="LatinModernMath-Regular-65" d="M 2656 762 
C 2656 826 2605 838 2573 838 
C 2515 838 2502 800 2490 749 
C 2266 90 1690 90 1626 90 
C 1306 90 1050 282 902 518 
C 710 826 710 1248 710 1478 
L 2496 1478 
C 2637 1478 2656 1478 2656 1613 
C 2656 2246 2310 2867 1510 2867 
C 768 2867 179 2208 179 1408 
C 179 550 851 -70 1587 -70 
C 2368 -70 2656 640 2656 762 
z
M 2234 1613 
L 717 1613 
C 755 2566 1293 2726 1510 2726 
C 2170 2726 2234 1862 2234 1613 
z
" transform="scale(0.015625)"/>
      </defs>
      <use xlink:href="#LatinModernMath-Regular-56"/>
      <use xlink:href="#LatinModernMath-Regular-61" x="74.999985"/>
      <use xlink:href="#LatinModernMath-Regular-72" x="124.999969"/>
      <use xlink:href="#LatinModernMath-Regular-69" x="164.199966"/>
      <use xlink:href="#LatinModernMath-Regular-61" x="191.999954"/>
      <use xlink:href="#LatinModernMath-Regular-62" x="241.999939"/>
      <use xlink:href="#LatinModernMath-Regular-6c" x="297.59993"/>
      <use xlink:href="#LatinModernMath-Regular-65" x="325.399918"/>
     </g>
    </g>
   </g>
   <g id="matplotlib.axis_2">
    <g id="ytick_1">
     <g id="line2d_32">
      <defs>
       <path id="mc947610920" d="M 0 0 
L 6 0 
" style="stroke: #1a1a1a; stroke-width: 0.8"/>
      </defs>
      <g>
       <use xlink:href="#mc947610920" x="53.38625" y="242.370937" style="fill: #1a1a1a; stroke: #1a1a1a; stroke-width: 0.8"/>
      </g>
     </g>
     <g id="text_9">
      <!-- $\mathdefault{0.0}$ -->
      <g style="fill: #1a1a1a" transform="translate(29.18625 247.576406) scale(0.15 -0.15)">
       <defs>
        <path id="LatinModernMath-Regular-2e" d="M 1229 339 
C 1229 525 1075 678 890 678 
C 704 678 550 525 550 339 
C 550 154 704 0 890 0 
C 1075 0 1229 154 1229 339 
z
" transform="scale(0.015625)"/>
       </defs>
       <use xlink:href="#LatinModernMath-Regular-30" transform="translate(0 0.40625)"/>
       <use xlink:href="#LatinModernMath-Regular-2e" transform="translate(49.999985 0.40625)"/>
       <use xlink:href="#LatinModernMath-Regular-30" transform="translate(77.799973 0.40625)"/>
      </g>
     </g>
    </g>
    <g id="ytick_2">
     <g id="line2d_33">
      <g>
       <use xlink:href="#mc947610920" x="53.38625" y="210.338313" style="fill: #1a1a1a; stroke: #1a1a1a; stroke-width: 0.8"/>
      </g>
     </g>
     <g id="text_10">
      <!-- $\mathdefault{0.2}$ -->
      <g style="fill: #1a1a1a" transform="translate(29.18625 215.543782) scale(0.15 -0.15)">
       <use xlink:href="#LatinModernMath-Regular-30" transform="translate(0 0.40625)"/>
       <use xlink:href="#LatinModernMath-Regular-2e" transform="translate(49.999985 0.40625)"/>
       <use xlink:href="#LatinModernMath-Regular-32" transform="translate(77.799973 0.40625)"/>
      </g>
     </g>
    </g>
    <g id="ytick_3">
     <g id="line2d_34">
      <g>
       <use xlink:href="#mc947610920" x="53.38625" y="178.305689" style="fill: #1a1a1a; stroke: #1a1a1a; stroke-width: 0.8"/>
      </g>
     </g>
     <g id="text_11">
      <!-- $\mathdefault{0.4}$ -->
      <g style="fill: #1a1a1a" transform="translate(29.18625 183.511158) scale(0.15 -0.15)">
       <use xlink:href="#LatinModernMath-Regular-30" transform="translate(0 0.296875)"/>
       <use xlink:href="#LatinModernMath-Regular-2e" transform="translate(49.999985 0.296875)"/>
       <use xlink:href="#LatinModernMath-Regular-34" transform="translate(77.799973 0.296875)"/>
      </g>
     </g>
    </g>
    <g id="ytick_4">
     <g id="line2d_35">
      <g>
       <use xlink:href="#mc947610920" x="53.38625" y="146.273065" style="fill: #1a1a1a; stroke: #1a1a1a; stroke-width: 0.8"/>
      </g>
     </g>
     <g id="text_12">
      <!-- $\mathdefault{0.6}$ -->
      <g style="fill: #1a1a1a" transform="translate(29.18625 151.478534) scale(0.15 -0.15)">
       <use xlink:href="#LatinModernMath-Regular-30" transform="translate(0 0.40625)"/>
       <use xlink:href="#LatinModernMath-Regular-2e" transform="translate(49.999985 0.40625)"/>
       <use xlink:href="#LatinModernMath-Regular-36" transform="translate(77.799973 0.40625)"/>
      </g>
     </g>
    </g>
    <g id="ytick_5">
     <g id="line2d_36">
      <g>
       <use xlink:href="#mc947610920" x="53.38625" y="114.240441" style="fill: #1a1a1a; stroke: #1a1a1a; stroke-width: 0.8"/>
      </g>
     </g>
     <g id="text_13">
      <!-- $\mathdefault{0.8}$ -->
      <g style="fill: #1a1a1a" transform="translate(29.18625 119.44591) scale(0.15 -0.15)">
       <defs>
        <path id="LatinModernMath-Regular-38" d="M 2925 1075 
C 2925 1306 2854 1594 2611 1862 
C 2490 1997 2387 2061 1978 2317 
C 2438 2554 2752 2886 2752 3309 
C 2752 3898 2182 4262 1600 4262 
C 960 4262 442 3789 442 3194 
C 442 3078 454 2790 723 2490 
C 794 2413 1030 2253 1190 2144 
C 819 1958 269 1600 269 966 
C 269 288 922 -141 1594 -141 
C 2317 -141 2925 390 2925 1075 
z
M 2470 3309 
C 2470 2944 2221 2637 1837 2413 
L 1043 2925 
C 749 3117 723 3334 723 3443 
C 723 3834 1139 4102 1594 4102 
C 2061 4102 2470 3770 2470 3309 
z
M 2605 845 
C 2605 371 2125 38 1600 38 
C 1050 38 589 435 589 966 
C 589 1338 794 1747 1338 2048 
L 2125 1549 
C 2304 1427 2605 1235 2605 845 
z
" transform="scale(0.015625)"/>
       </defs>
       <use xlink:href="#LatinModernMath-Regular-30" transform="translate(0 0.40625)"/>
       <use xlink:href="#LatinModernMath-Regular-2e" transform="translate(49.999985 0.40625)"/>
       <use xlink:href="#LatinModernMath-Regular-38" transform="translate(77.799973 0.40625)"/>
      </g>
     </g>
    </g>
    <g id="ytick_6">
     <g id="line2d_37">
      <g>
       <use xlink:href="#mc947610920" x="53.38625" y="82.207817" style="fill: #1a1a1a; stroke: #1a1a1a; stroke-width: 0.8"/>
      </g>
     </g>
     <g id="text_14">
      <!-- $\mathdefault{1.0}$ -->
      <g style="fill: #1a1a1a" transform="translate(29.18625 87.413286) scale(0.15 -0.15)">
       <use xlink:href="#LatinModernMath-Regular-31" transform="translate(0 0.40625)"/>
       <use xlink:href="#LatinModernMath-Regular-2e" transform="translate(49.999985 0.40625)"/>
       <use xlink:href="#LatinModernMath-Regular-30" transform="translate(77.799973 0.40625)"/>
      </g>
     </g>
    </g>
    <g id="ytick_7">
     <g id="line2d_38">
      <g>
       <use xlink:href="#mc947610920" x="53.38625" y="50.175193" style="fill: #1a1a1a; stroke: #1a1a1a; stroke-width: 0.8"/>
      </g>
     </g>
     <g id="text_15">
      <!-- $\mathdefault{1.2}$ -->
      <g style="fill: #1a1a1a" transform="translate(29.18625 55.380662) scale(0.15 -0.15)">
       <use xlink:href="#LatinModernMath-Regular-31" transform="translate(0 0.40625)"/>
       <use xlink:href="#LatinModernMath-Regular-2e" transform="translate(49.999985 0.40625)"/>
       <use xlink:href="#LatinModernMath-Regular-32" transform="translate(77.799973 0.40625)"/>
      </g>
     </g>
    </g>
    <g id="ytick_8">
     <g id="line2d_39">
      <defs>
       <path id="m5f9d1e6504" d="M 0 0 
L 3 0 
" style="stroke: #1a1a1a; stroke-width: 0.6"/>
      </defs>
      <g>
       <use xlink:href="#m5f9d1e6504" x="53.38625" y="234.362781" style="fill: #1a1a1a; stroke: #1a1a1a; stroke-width: 0.6"/>
      </g>
     </g>
    </g>
    <g id="ytick_9">
     <g id="line2d_40">
      <g>
       <use xlink:href="#m5f9d1e6504" x="53.38625" y="226.354625" style="fill: #1a1a1a; stroke: #1a1a1a; stroke-width: 0.6"/>
      </g>
     </g>
    </g>
    <g id="ytick_10">
     <g id="line2d_41">
      <g>
       <use xlink:href="#m5f9d1e6504" x="53.38625" y="218.346469" style="fill: #1a1a1a; stroke: #1a1a1a; stroke-width: 0.6"/>
      </g>
     </g>
    </g>
    <g id="ytick_11">
     <g id="line2d_42">
      <g>
       <use xlink:href="#m5f9d1e6504" x="53.38625" y="202.330157" style="fill: #1a1a1a; stroke: #1a1a1a; stroke-width: 0.6"/>
      </g>
     </g>
    </g>
    <g id="ytick_12">
     <g id="line2d_43">
      <g>
       <use xlink:href="#m5f9d1e6504" x="53.38625" y="194.322001" style="fill: #1a1a1a; stroke: #1a1a1a; stroke-width: 0.6"/>
      </g>
     </g>
    </g>
    <g id="ytick_13">
     <g id="line2d_44">
      <g>
       <use xlink:href="#m5f9d1e6504" x="53.38625" y="186.313845" style="fill: #1a1a1a; stroke: #1a1a1a; stroke-width: 0.6"/>
      </g>
     </g>
    </g>
    <g id="ytick_14">
     <g id="line2d_45">
      <g>
       <use xlink:href="#m5f9d1e6504" x="53.38625" y="170.297533" style="fill: #1a1a1a; stroke: #1a1a1a; stroke-width: 0.6"/>
      </g>
     </g>
    </g>
    <g id="ytick_15">
     <g id="line2d_46">
      <g>
       <use xlink:href="#m5f9d1e6504" x="53.38625" y="162.289377" style="fill: #1a1a1a; stroke: #1a1a1a; stroke-width: 0.6"/>
      </g>
     </g>
    </g>
    <g id="ytick_16">
     <g id="line2d_47">
      <g>
       <use xlink:href="#m5f9d1e6504" x="53.38625" y="154.281221" style="fill: #1a1a1a; stroke: #1a1a1a; stroke-width: 0.6"/>
      </g>
     </g>
    </g>
    <g id="ytick_17">
     <g id="line2d_48">
      <g>
       <use xlink:href="#m5f9d1e6504" x="53.38625" y="138.264909" style="fill: #1a1a1a; stroke: #1a1a1a; stroke-width: 0.6"/>
      </g>
     </g>
    </g>
    <g id="ytick_18">
     <g id="line2d_49">
      <g>
       <use xlink:href="#m5f9d1e6504" x="53.38625" y="130.256753" style="fill: #1a1a1a; stroke: #1a1a1a; stroke-width: 0.6"/>
      </g>
     </g>
    </g>
    <g id="ytick_19">
     <g id="line2d_50">
      <g>
       <use xlink:href="#m5f9d1e6504" x="53.38625" y="122.248597" style="fill: #1a1a1a; stroke: #1a1a1a; stroke-width: 0.6"/>
      </g>
     </g>
    </g>
    <g id="ytick_20">
     <g id="line2d_51">
      <g>
       <use xlink:href="#m5f9d1e6504" x="53.38625" y="106.232285" style="fill: #1a1a1a; stroke: #1a1a1a; stroke-width: 0.6"/>
      </g>
     </g>
    </g>
    <g id="ytick_21">
     <g id="line2d_52">
      <g>
       <use xlink:href="#m5f9d1e6504" x="53.38625" y="98.224129" style="fill: #1a1a1a; stroke: #1a1a1a; stroke-width: 0.6"/>
      </g>
     </g>
    </g>
    <g id="ytick_22">
     <g id="line2d_53">
      <g>
       <use xlink:href="#m5f9d1e6504" x="53.38625" y="90.215973" style="fill: #1a1a1a; stroke: #1a1a1a; stroke-width: 0.6"/>
      </g>
     </g>
    </g>
    <g id="ytick_23">
     <g id="line2d_54">
      <g>
       <use xlink:href="#m5f9d1e6504" x="53.38625" y="74.199661" style="fill: #1a1a1a; stroke: #1a1a1a; stroke-width: 0.6"/>
      </g>
     </g>
    </g>
    <g id="ytick_24">
     <g id="line2d_55">
      <g>
       <use xlink:href="#m5f9d1e6504" x="53.38625" y="66.191505" style="fill: #1a1a1a; stroke: #1a1a1a; stroke-width: 0.6"/>
      </g>
     </g>
    </g>
    <g id="ytick_25">
     <g id="line2d_56">
      <g>
       <use xlink:href="#m5f9d1e6504" x="53.38625" y="58.183349" style="fill: #1a1a1a; stroke: #1a1a1a; stroke-width: 0.6"/>
      </g>
     </g>
    </g>
    <g id="ytick_26">
     <g id="line2d_57">
      <g>
       <use xlink:href="#m5f9d1e6504" x="53.38625" y="42.167037" style="fill: #1a1a1a; stroke: #1a1a1a; stroke-width: 0.6"/>
      </g>
     </g>
    </g>
    <g id="ytick_27">
     <g id="line2d_58">
      <g>
       <use xlink:href="#m5f9d1e6504" x="53.38625" y="34.158881" style="fill: #1a1a1a; stroke: #1a1a1a; stroke-width: 0.6"/>
      </g>
     </g>
    </g>
    <g id="ytick_28">
     <g id="line2d_59">
      <g>
       <use xlink:href="#m5f9d1e6504" x="53.38625" y="26.150725" style="fill: #1a1a1a; stroke: #1a1a1a; stroke-width: 0.6"/>
      </g>
     </g>
    </g>
    <g id="text_16">
     <!-- Entries -->
     <g style="fill: #1a1a1a" transform="translate(19.693125 159.6975) rotate(-90) scale(0.18 -0.18)">
      <defs>
       <path id="LatinModernMath-Regular-45" d="M 4173 1651 
L 4013 1651 
C 3853 666 3706 198 2605 198 
L 1754 198 
C 1453 198 1440 243 1440 454 
L 1440 2163 
L 2016 2163 
C 2637 2163 2707 1958 2707 1414 
L 2867 1414 
L 2867 3110 
L 2707 3110 
C 2707 2560 2637 2362 2016 2362 
L 1440 2362 
L 1440 3898 
C 1440 4109 1453 4154 1754 4154 
L 2579 4154 
C 3558 4154 3731 3802 3834 2912 
L 3994 2912 
L 3814 4352 
L 211 4352 
L 211 4154 
L 365 4154 
C 858 4154 870 4083 870 3853 
L 870 499 
C 870 269 858 198 365 198 
L 211 198 
L 211 0 
L 3904 0 
L 4173 1651 
z
" transform="scale(0.015625)"/>
       <path id="LatinModernMath-Regular-6e" d="M 3424 0 
L 3424 198 
C 3091 198 2931 198 2925 390 
L 2925 1613 
C 2925 2163 2925 2362 2726 2592 
C 2637 2701 2426 2829 2054 2829 
C 1587 2829 1286 2554 1107 2157 
L 1107 2829 
L 205 2758 
L 205 2560 
C 653 2560 704 2515 704 2202 
L 704 486 
C 704 198 634 198 205 198 
L 205 0 
L 928 19 
L 1645 0 
L 1645 198 
C 1216 198 1146 198 1146 486 
L 1146 1664 
C 1146 2330 1600 2688 2010 2688 
C 2413 2688 2483 2342 2483 1978 
L 2483 486 
C 2483 198 2413 198 1984 198 
L 1984 0 
L 2707 19 
L 3424 0 
z
" transform="scale(0.015625)"/>
       <path id="LatinModernMath-Regular-74" d="M 2125 794 
L 2125 1158 
L 1965 1158 
L 1965 806 
C 1965 333 1773 90 1536 90 
C 1107 90 1107 672 1107 781 
L 1107 2560 
L 2022 2560 
L 2022 2758 
L 1107 2758 
L 1107 3936 
L 947 3936 
C 941 3411 749 2726 122 2701 
L 122 2560 
L 666 2560 
L 666 794 
C 666 6 1261 -70 1491 -70 
C 1946 -70 2125 384 2125 794 
z
" transform="scale(0.015625)"/>
       <path id="LatinModernMath-Regular-73" d="M 2304 819 
C 2304 1158 2112 1350 2035 1427 
C 1824 1632 1574 1683 1306 1734 
C 947 1805 518 1888 518 2259 
C 518 2483 685 2746 1235 2746 
C 1939 2746 1971 2170 1984 1971 
C 1990 1914 2061 1914 2061 1914 
C 2144 1914 2144 1946 2144 2067 
L 2144 2714 
C 2144 2822 2144 2867 2074 2867 
C 2042 2867 2029 2867 1946 2790 
C 1926 2765 1862 2707 1837 2688 
C 1594 2867 1331 2867 1235 2867 
C 454 2867 211 2438 211 2080 
C 211 1856 314 1677 486 1536 
C 691 1370 870 1331 1331 1242 
C 1472 1216 1997 1114 1997 653 
C 1997 326 1773 70 1274 70 
C 736 70 506 435 384 979 
C 365 1062 358 1088 294 1088 
C 211 1088 211 1043 211 928 
L 211 83 
C 211 -26 211 -70 282 -70 
C 314 -70 320 -64 442 58 
C 454 70 454 83 570 205 
C 851 -64 1139 -70 1274 -70 
C 2010 -70 2304 358 2304 819 
z
" transform="scale(0.015625)"/>
      </defs>
      <use xlink:href="#LatinModernMath-Regular-45"/>
      <use xlink:href="#LatinModernMath-Regular-6e" x="68.099991"/>
      <use xlink:href="#LatinModernMath-Regular-74" x="123.699982"/>
      <use xlink:href="#LatinModernMath-Regular-72" x="162.599976"/>
      <use xlink:href="#LatinModernMath-Regular-69" x="201.799973"/>
      <use xlink:href="#LatinModernMath-Regular-65" x="229.59996"/>
      <use xlink:href="#LatinModernMath-Regular-73" x="273.999954"/>
     </g>
    </g>
    <g id="text_17">
     <!-- $\times\mathdefault{10^{8}}\mathdefault{}$ -->
     <g style="fill: #1a1a1a" transform="translate(53.38625 17.610937) scale(0.15 -0.15)">
      <defs>
       <path id="LatinModernMath-Regular-d7" d="M 3994 96 
C 4045 141 4045 224 3994 275 
L 2669 1600 
L 3994 2925 
C 4045 2976 4045 3059 3994 3104 
C 3949 3155 3866 3155 3814 3104 
L 2490 1779 
L 1165 3104 
C 1114 3155 1030 3155 986 3104 
C 934 3059 934 2976 986 2925 
L 2310 1600 
L 986 275 
C 934 224 934 141 986 96 
C 1030 45 1114 45 1165 96 
L 2490 1421 
L 3814 96 
C 3866 45 3949 45 3994 96 
z
" transform="scale(0.015625)"/>
      </defs>
      <use xlink:href="#LatinModernMath-Regular-d7" transform="translate(0 0.21875)"/>
      <use xlink:href="#LatinModernMath-Regular-31" transform="translate(77.799988 0.21875)"/>
      <use xlink:href="#LatinModernMath-Regular-30" transform="translate(127.799973 0.21875)"/>
      <use xlink:href="#LatinModernMath-Regular-38" transform="translate(178.554098 30.384375) scale(0.7)"/>
     </g>
    </g>
   </g>
   <g id="legend_1">
    <g id="patch_57">
     <path d="M 317.94875 39.810937 
L 341.94875 39.810937 
L 341.94875 31.410937 
L 317.94875 31.410937 
z
" style="fill: #348abd"/>
    </g>
    <g id="text_18">
     <!-- Data -->
     <g style="fill: #1a1a1a" transform="translate(351.54875 39.810937) scale(0.12 -0.12)">
      <defs>
       <path id="LatinModernMath-Regular-44" d="M 4525 2150 
C 4525 3366 3661 4371 2566 4371 
L 224 4371 
L 224 4173 
L 378 4173 
C 870 4173 883 4102 883 3872 
L 883 499 
C 883 269 870 198 378 198 
L 224 198 
L 224 0 
L 2566 0 
C 3642 0 4525 947 4525 2150 
z
M 3885 2150 
C 3885 1440 3763 1056 3533 742 
C 3405 570 3040 198 2394 198 
L 1747 198 
C 1446 198 1434 243 1434 454 
L 1434 3917 
C 1434 4128 1446 4173 1747 4173 
L 2387 4173 
C 2784 4173 3226 4032 3552 3578 
C 3827 3200 3885 2650 3885 2150 
z
" transform="scale(0.015625)"/>
      </defs>
      <use xlink:href="#LatinModernMath-Regular-44"/>
      <use xlink:href="#LatinModernMath-Regular-61" x="76.399994"/>
      <use xlink:href="#LatinModernMath-Regular-74" x="126.399979"/>
      <use xlink:href="#LatinModernMath-Regular-61" x="165.299973"/>
     </g>
    </g>
   </g>
  </g>
 </g>
 <defs>
  <clipPath id="p50e89fbce3">
   <rect x="53.38625" y="20.610937" width="334.8" height="221.76"/>
  </clipPath>
 </defs>
</svg>
