<?xml version="1.0" encoding="utf-8" standalone="no"?>
<!DOCTYPE svg PUBLIC "-//W3C//DTD SVG 1.1//EN"
  "http://www.w3.org/Graphics/SVG/1.1/DTD/svg11.dtd">
<svg xmlns:xlink="http://www.w3.org/1999/xlink" width="399.13625pt" height="292.879062pt" viewBox="0 0 399.13625 292.879062" xmlns="http://www.w3.org/2000/svg" version="1.1">
 <metadata>
  <rdf:RDF xmlns:dc="http://purl.org/dc/elements/1.1/" xmlns:cc="http://creativecommons.org/ns#" xmlns:rdf="http://www.w3.org/1999/02/22-rdf-syntax-ns#">
   <cc:Work>
    <dc:type rdf:resource="http://purl.org/dc/dcmitype/StillImage"/>
    <dc:date>2024-01-25T13:16:58.909171</dc:date>
    <dc:format>image/svg+xml</dc:format>
    <dc:creator>
     <cc:Agent>
      <dc:title>Matplotlib v3.8.1, https://matplotlib.org/</dc:title>
     </cc:Agent>
    </dc:creator>
   </cc:Work>
  </rdf:RDF>
 </metadata>
 <defs>
  <style type="text/css">*{stroke-linejoin: round; stroke-linecap: butt}</style>
 </defs>
 <g id="figure_1">
  <g id="patch_1">
   <path d="M 0 292.879062 
L 399.13625 292.879062 
L 399.13625 0 
L 0 0 
z
" style="fill: #ffffff"/>
  </g>
  <g id="axes_1">
   <g id="patch_2">
    <path d="M 53.38625 242.370937 
L 388.18625 242.370937 
L 388.18625 20.610937 
L 53.38625 20.610937 
z
" style="fill: #ffffff"/>
   </g>
   <g id="patch_3">
    <path d="M 53.38625 98.458375 
L 53.38625 76.938123 
L 60.08225 76.938123 
L 60.08225 38.680386 
L 66.77825 38.680386 
L 66.77825 31.170937 
L 73.47425 31.170937 
L 73.47425 41.644221 
L 80.17025 41.644221 
L 80.17025 58.253467 
L 86.86625 58.253467 
L 86.86625 75.745423 
L 93.56225 75.745423 
L 93.56225 92.223961 
L 100.25825 92.223961 
L 100.25825 106.969977 
L 106.95425 106.969977 
L 106.95425 119.595991 
L 113.65025 119.595991 
L 113.65025 130.297539 
L 120.34625 130.297539 
L 120.34625 139.075471 
L 127.04225 139.075471 
L 127.04225 146.121519 
L 133.73825 146.121519 
L 133.73825 151.568201 
L 140.43425 151.568201 
L 140.43425 155.599322 
L 147.13025 155.599322 
L 147.13025 158.425146 
L 153.82625 158.425146 
L 153.82625 160.163056 
L 160.52225 160.163056 
L 160.52225 161.149537 
L 167.21825 161.149537 
L 167.21825 161.448655 
L 173.91425 161.448655 
L 173.91425 161.324036 
L 180.61025 161.324036 
L 180.61025 160.993601 
L 187.30625 160.993601 
L 187.30625 160.614635 
L 194.00225 160.614635 
L 194.00225 160.429651 
L 200.69825 160.429651 
L 200.69825 160.55907 
L 207.39425 160.55907 
L 207.39425 161.192548 
L 214.09025 161.192548 
L 214.09025 162.382666 
L 220.78625 162.382666 
L 220.78625 164.23238 
L 227.48225 164.23238 
L 227.48225 166.719294 
L 234.17825 166.719294 
L 234.17825 169.884175 
L 240.87425 169.884175 
L 240.87425 173.660079 
L 247.57025 173.660079 
L 247.57025 177.930586 
L 254.26625 177.930586 
L 254.26625 182.610639 
L 260.96225 182.610639 
L 260.96225 187.592855 
L 267.65825 187.592855 
L 267.65825 192.740169 
L 274.35425 192.740169 
L 274.35425 197.920347 
L 281.05025 197.920347 
L 281.05025 202.999926 
L 287.74625 202.999926 
L 287.74625 207.833683 
L 294.44225 207.833683 
L 294.44225 212.427762 
L 301.13825 212.427762 
L 301.13825 216.656135 
L 307.83425 216.656135 
L 307.83425 220.487428 
L 314.53025 220.487428 
L 314.53025 223.875802 
L 321.22625 223.875802 
L 321.22625 226.86443 
L 327.92225 226.86443 
L 327.92225 229.42109 
L 334.61825 229.42109 
L 334.61825 231.601403 
L 341.31425 231.601403 
L 341.31425 233.412491 
L 348.01025 233.412491 
L 348.01025 234.930586 
L 354.70625 234.930586 
L 354.70625 236.155899 
L 361.40225 236.155899 
L 361.40225 237.136758 
L 368.09825 237.136758 
L 368.09825 237.939158 
L 374.79425 237.939158 
L 374.79425 238.575506 
L 381.49025 238.575506 
L 381.49025 239.074928 
L 388.18625 239.074928 
L 388.18625 241.162292 
L 381.49025 241.162292 
L 381.49025 240.779918 
L 374.79425 240.779918 
L 374.79425 240.273304 
L 368.09825 240.273304 
L 368.09825 239.613562 
L 361.40225 239.613562 
L 361.40225 238.784853 
L 354.70625 238.784853 
L 354.70625 237.717821 
L 348.01025 237.717821 
L 348.01025 236.376478 
L 341.31425 236.376478 
L 341.31425 234.74922 
L 334.61825 234.74922 
L 334.61825 232.781938 
L 327.92225 232.781938 
L 327.92225 230.435325 
L 321.22625 230.435325 
L 321.22625 227.68454 
L 314.53025 227.68454 
L 314.53025 224.549417 
L 307.83425 224.549417 
L 307.83425 220.995672 
L 301.13825 220.995672 
L 301.13825 217.077572 
L 294.44225 217.077572 
L 294.44225 212.816562 
L 287.74625 212.816562 
L 287.74625 208.337365 
L 281.05025 208.337365 
L 281.05025 203.645003 
L 274.35425 203.645003 
L 274.35425 198.890662 
L 267.65825 198.890662 
L 267.65825 194.212707 
L 260.96225 194.212707 
L 260.96225 189.749522 
L 254.26625 189.749522 
L 254.26625 185.62892 
L 247.57025 185.62892 
L 247.57025 181.980313 
L 240.87425 181.980313 
L 240.87425 178.889407 
L 234.17825 178.889407 
L 234.17825 176.473341 
L 227.48225 176.473341 
L 227.48225 174.8274 
L 220.78625 174.8274 
L 220.78625 173.905494 
L 214.09025 173.905494 
L 214.09025 173.750381 
L 207.39425 173.750381 
L 207.39425 174.260214 
L 200.69825 174.260214 
L 200.69825 175.423361 
L 194.00225 175.423361 
L 194.00225 177.049986 
L 187.30625 177.049986 
L 187.30625 179.049817 
L 180.61025 179.049817 
L 180.61025 181.191224 
L 173.91425 181.191224 
L 173.91425 183.372334 
L 167.21825 183.372334 
L 167.21825 185.393013 
L 160.52225 185.393013 
L 160.52225 187.040437 
L 153.82625 187.040437 
L 153.82625 188.299618 
L 147.13025 188.299618 
L 147.13025 188.904402 
L 140.43425 188.904402 
L 140.43425 188.792448 
L 133.73825 188.792448 
L 133.73825 187.847253 
L 127.04225 187.847253 
L 127.04225 185.916135 
L 120.34625 185.916135 
L 120.34625 183.022729 
L 113.65025 183.022729 
L 113.65025 179.021527 
L 106.95425 179.021527 
L 106.95425 173.932033 
L 100.25825 173.932033 
L 100.25825 167.549459 
L 93.56225 167.549459 
L 93.56225 159.933439 
L 86.86625 159.933439 
L 86.86625 150.91059 
L 80.17025 150.91059 
L 80.17025 140.358767 
L 73.47425 140.358767 
L 73.47425 128.202311 
L 66.77825 128.202311 
L 66.77825 114.306127 
L 60.08225 114.306127 
L 60.08225 98.458375 
z
" clip-path="url(#p50e89fbce3)" style="fill: #988ed5; stroke: #000000; stroke-width: 0.5; stroke-linejoin: miter"/>
   </g>
   <g id="patch_4">
    <path d="M 53.38625 241.562055 
L 53.38625 98.458375 
L 60.08225 98.458375 
L 60.08225 114.306127 
L 66.77825 114.306127 
L 66.77825 128.202311 
L 73.47425 128.202311 
L 73.47425 140.358767 
L 80.17025 140.358767 
L 80.17025 150.91059 
L 86.86625 150.91059 
L 86.86625 159.933439 
L 93.56225 159.933439 
L 93.56225 167.549459 
L 100.25825 167.549459 
L 100.25825 173.932033 
L 106.95425 173.932033 
L 106.95425 179.021527 
L 113.65025 179.021527 
L 113.65025 183.022729 
L 120.34625 183.022729 
L 120.34625 185.916135 
L 127.04225 185.916135 
L 127.04225 187.847253 
L 133.73825 187.847253 
L 133.73825 188.792448 
L 140.43425 188.792448 
L 140.43425 188.904402 
L 147.13025 188.904402 
L 147.13025 188.299618 
L 153.82625 188.299618 
L 153.82625 187.040437 
L 160.52225 187.040437 
L 160.52225 185.393013 
L 167.21825 185.393013 
L 167.21825 183.372334 
L 173.91425 183.372334 
L 173.91425 181.191224 
L 180.61025 181.191224 
L 180.61025 179.049817 
L 187.30625 179.049817 
L 187.30625 177.049986 
L 194.00225 177.049986 
L 194.00225 175.423361 
L 200.69825 175.423361 
L 200.69825 174.260214 
L 207.39425 174.260214 
L 207.39425 173.750381 
L 214.09025 173.750381 
L 214.09025 173.905494 
L 220.78625 173.905494 
L 220.78625 174.8274 
L 227.48225 174.8274 
L 227.48225 176.473341 
L 234.17825 176.473341 
L 234.17825 178.889407 
L 240.87425 178.889407 
L 240.87425 181.980313 
L 247.57025 181.980313 
L 247.57025 185.62892 
L 254.26625 185.62892 
L 254.26625 189.749522 
L 260.96225 189.749522 
L 260.96225 194.212707 
L 267.65825 194.212707 
L 267.65825 198.890662 
L 274.35425 198.890662 
L 274.35425 203.645003 
L 281.05025 203.645003 
L 281.05025 208.337365 
L 287.74625 208.337365 
L 287.74625 212.816562 
L 294.44225 212.816562 
L 294.44225 217.077572 
L 301.13825 217.077572 
L 301.13825 220.995672 
L 307.83425 220.995672 
L 307.83425 224.549417 
L 314.53025 224.549417 
L 314.53025 227.68454 
L 321.22625 227.68454 
L 321.22625 230.435325 
L 327.92225 230.435325 
L 327.92225 232.781938 
L 334.61825 232.781938 
L 334.61825 234.74922 
L 341.31425 234.74922 
L 341.31425 236.376478 
L 348.01025 236.376478 
L 348.01025 237.717821 
L 354.70625 237.717821 
L 354.70625 238.784853 
L 361.40225 238.784853 
L 361.40225 239.613562 
L 368.09825 239.613562 
L 368.09825 240.273304 
L 374.79425 240.273304 
L 374.79425 240.779918 
L 381.49025 240.779918 
L 381.49025 241.162292 
L 388.18625 241.162292 
L 388.18625 241.563522 
L 381.49025 241.563522 
L 381.49025 241.227888 
L 374.79425 241.227888 
L 374.79425 240.781439 
L 368.09825 240.781439 
L 368.09825 240.189177 
L 361.40225 240.189177 
L 361.40225 239.429222 
L 354.70625 239.429222 
L 354.70625 238.443004 
L 348.01025 238.443004 
L 348.01025 237.197586 
L 341.31425 237.197586 
L 341.31425 235.677833 
L 334.61825 235.677833 
L 334.61825 233.824922 
L 327.92225 233.824922 
L 327.92225 231.612929 
L 321.22625 231.612929 
L 321.22625 229.009261 
L 314.53025 229.009261 
L 314.53025 226.043175 
L 307.83425 226.043175 
L 307.83425 222.681586 
L 301.13825 222.681586 
L 301.13825 218.980972 
L 294.44225 218.980972 
L 294.44225 214.965865 
L 287.74625 214.965865 
L 287.74625 210.754892 
L 281.05025 210.754892 
L 281.05025 206.376238 
L 274.35425 206.376238 
L 274.35425 201.964894 
L 267.65825 201.964894 
L 267.65825 197.67331 
L 260.96225 197.67331 
L 260.96225 193.658033 
L 254.26625 193.658033 
L 254.26625 190.038044 
L 247.57025 190.038044 
L 247.57025 186.952429 
L 240.87425 186.952429 
L 240.87425 184.488497 
L 234.17825 184.488497 
L 234.17825 182.793236 
L 227.48225 182.793236 
L 227.48225 181.948389 
L 220.78625 181.948389 
L 220.78625 181.935828 
L 214.09025 181.935828 
L 214.09025 182.804296 
L 207.39425 182.804296 
L 207.39425 184.477705 
L 200.69825 184.477705 
L 200.69825 186.926741 
L 194.00225 186.926741 
L 194.00225 190.029727 
L 187.30625 190.029727 
L 187.30625 193.688674 
L 180.61025 193.688674 
L 180.61025 197.695699 
L 173.91425 197.695699 
L 173.91425 201.979218 
L 167.21825 201.979218 
L 167.21825 206.367908 
L 160.52225 206.367908 
L 160.52225 210.720791 
L 153.82625 210.720791 
L 153.82625 214.969326 
L 147.13025 214.969326 
L 147.13025 218.982665 
L 140.43425 218.982665 
L 140.43425 222.690579 
L 133.73825 222.690579 
L 133.73825 226.05187 
L 127.04225 226.05187 
L 127.04225 229.023418 
L 120.34625 229.023418 
L 120.34625 231.621731 
L 113.65025 231.621731 
L 113.65025 233.819147 
L 106.95425 233.819147 
L 106.95425 235.679965 
L 100.25825 235.679965 
L 100.25825 237.203507 
L 93.56225 237.203507 
L 93.56225 238.440761 
L 86.86625 238.440761 
L 86.86625 239.423786 
L 80.17025 239.423786 
L 80.17025 240.191011 
L 73.47425 240.191011 
L 73.47425 240.782448 
L 66.77825 240.782448 
L 66.77825 241.228051 
L 60.08225 241.228051 
L 60.08225 241.562055 
z
" clip-path="url(#p50e89fbce3)" style="fill: #e24a33; stroke: #000000; stroke-width: 0.5; stroke-linejoin: miter"/>
   </g>
   <g id="patch_5">
    <path d="M 53.38625 242.370937 
L 53.38625 241.562055 
L 60.08225 241.562055 
L 60.08225 241.228051 
L 66.77825 241.228051 
L 66.77825 240.782448 
L 73.47425 240.782448 
L 73.47425 240.191011 
L 80.17025 240.191011 
L 80.17025 239.423786 
L 86.86625 239.423786 
L 86.86625 238.440761 
L 93.56225 238.440761 
L 93.56225 237.203507 
L 100.25825 237.203507 
L 100.25825 235.679965 
L 106.95425 235.679965 
L 106.95425 233.819147 
L 113.65025 233.819147 
L 113.65025 231.621731 
L 120.34625 231.621731 
L 120.34625 229.023418 
L 127.04225 229.023418 
L 127.04225 226.05187 
L 133.73825 226.05187 
L 133.73825 222.690579 
L 140.43425 222.690579 
L 140.43425 218.982665 
L 147.13025 218.982665 
L 147.13025 214.969326 
L 153.82625 214.969326 
L 153.82625 210.720791 
L 160.52225 210.720791 
L 160.52225 206.367908 
L 167.21825 206.367908 
L 167.21825 201.979218 
L 173.91425 201.979218 
L 173.91425 197.695699 
L 180.61025 197.695699 
L 180.61025 193.688674 
L 187.30625 193.688674 
L 187.30625 190.029727 
L 194.00225 190.029727 
L 194.00225 186.926741 
L 200.69825 186.926741 
L 200.69825 184.477705 
L 207.39425 184.477705 
L 207.39425 182.804296 
L 214.09025 182.804296 
L 214.09025 181.935828 
L 220.78625 181.935828 
L 220.78625 181.948389 
L 227.48225 181.948389 
L 227.48225 182.793236 
L 234.17825 182.793236 
L 234.17825 184.488497 
L 240.87425 184.488497 
L 240.87425 186.952429 
L 247.57025 186.952429 
L 247.57025 190.038044 
L 254.26625 190.038044 
L 254.26625 193.658033 
L 260.96225 193.658033 
L 260.96225 197.67331 
L 267.65825 197.67331 
L 267.65825 201.964894 
L 274.35425 201.964894 
L 274.35425 206.376238 
L 281.05025 206.376238 
L 281.05025 210.754892 
L 287.74625 210.754892 
L 287.74625 214.965865 
L 294.44225 214.965865 
L 294.44225 218.980972 
L 301.13825 218.980972 
L 301.13825 222.681586 
L 307.83425 222.681586 
L 307.83425 226.043175 
L 314.53025 226.043175 
L 314.53025 229.009261 
L 321.22625 229.009261 
L 321.22625 231.612929 
L 327.92225 231.612929 
L 327.92225 233.824922 
L 334.61825 233.824922 
L 334.61825 235.677833 
L 341.31425 235.677833 
L 341.31425 237.197586 
L 348.01025 237.197586 
L 348.01025 238.443004 
L 354.70625 238.443004 
L 354.70625 239.429222 
L 361.40225 239.429222 
L 361.40225 240.189177 
L 368.09825 240.189177 
L 368.09825 240.781439 
L 374.79425 240.781439 
L 374.79425 241.227888 
L 381.49025 241.227888 
L 381.49025 241.563522 
L 388.18625 241.563522 
L 388.18625 242.370937 
L 381.49025 242.370937 
L 381.49025 242.370937 
L 374.79425 242.370937 
L 374.79425 242.370937 
L 368.09825 242.370937 
L 368.09825 242.370937 
L 361.40225 242.370937 
L 361.40225 242.370937 
L 354.70625 242.370937 
L 354.70625 242.370937 
L 348.01025 242.370937 
L 348.01025 242.370937 
L 341.31425 242.370937 
L 341.31425 242.370937 
L 334.61825 242.370937 
L 334.61825 242.370937 
L 327.92225 242.370937 
L 327.92225 242.370937 
L 321.22625 242.370937 
L 321.22625 242.370937 
L 314.53025 242.370937 
L 314.53025 242.370937 
L 307.83425 242.370937 
L 307.83425 242.370937 
L 301.13825 242.370937 
L 301.13825 242.370937 
L 294.44225 242.370937 
L 294.44225 242.370937 
L 287.74625 242.370937 
L 287.74625 242.370937 
L 281.05025 242.370937 
L 281.05025 242.370937 
L 274.35425 242.370937 
L 274.35425 242.370937 
L 267.65825 242.370937 
L 267.65825 242.370937 
L 260.96225 242.370937 
L 260.96225 242.370937 
L 254.26625 242.370937 
L 254.26625 242.370937 
L 247.57025 242.370937 
L 247.57025 242.370937 
L 240.87425 242.370937 
L 240.87425 242.370937 
L 234.17825 242.370937 
L 234.17825 242.370937 
L 227.48225 242.370937 
L 227.48225 242.370937 
L 220.78625 242.370937 
L 220.78625 242.370937 
L 214.09025 242.370937 
L 214.09025 242.370937 
L 207.39425 242.370937 
L 207.39425 242.370937 
L 200.69825 242.370937 
L 200.69825 242.370937 
L 194.00225 242.370937 
L 194.00225 242.370937 
L 187.30625 242.370937 
L 187.30625 242.370937 
L 180.61025 242.370937 
L 180.61025 242.370937 
L 173.91425 242.370937 
L 173.91425 242.370937 
L 167.21825 242.370937 
L 167.21825 242.370937 
L 160.52225 242.370937 
L 160.52225 242.370937 
L 153.82625 242.370937 
L 153.82625 242.370937 
L 147.13025 242.370937 
L 147.13025 242.370937 
L 140.43425 242.370937 
L 140.43425 242.370937 
L 133.73825 242.370937 
L 133.73825 242.370937 
L 127.04225 242.370937 
L 127.04225 242.370937 
L 120.34625 242.370937 
L 120.34625 242.370937 
L 113.65025 242.370937 
L 113.65025 242.370937 
L 106.95425 242.370937 
L 106.95425 242.370937 
L 100.25825 242.370937 
L 100.25825 242.370937 
L 93.56225 242.370937 
L 93.56225 242.370937 
L 86.86625 242.370937 
L 86.86625 242.370937 
L 80.17025 242.370937 
L 80.17025 242.370937 
L 73.47425 242.370937 
L 73.47425 242.370937 
L 66.77825 242.370937 
L 66.77825 242.370937 
L 60.08225 242.370937 
L 60.08225 242.370937 
z
" clip-path="url(#p50e89fbce3)" style="fill: #348abd; stroke: #000000; stroke-width: 0.5; stroke-linejoin: miter"/>
   </g>
   <g id="patch_6">
    <path d="M 53.38625 242.370937 
L 53.38625 20.610937 
" style="fill: none; stroke: #000000; stroke-linejoin: miter; stroke-linecap: square"/>
   </g>
   <g id="patch_7">
    <path d="M 388.18625 242.370937 
L 388.18625 20.610937 
" style="fill: none; stroke: #000000; stroke-linejoin: miter; stroke-linecap: square"/>
   </g>
   <g id="patch_8">
    <path d="M 53.38625 242.370937 
L 388.18625 242.370937 
" style="fill: none; stroke: #000000; stroke-linejoin: miter; stroke-linecap: square"/>
   </g>
   <g id="patch_9">
    <path d="M 53.38625 20.610937 
L 388.18625 20.610937 
" style="fill: none; stroke: #000000; stroke-linejoin: miter; stroke-linecap: square"/>
   </g>
   <g id="matplotlib.axis_1">
    <g id="xtick_1">
     <g id="line2d_1">
      <defs>
       <path id="m8dec1b3d1d" d="M 0 0 
L 0 -6 
" style="stroke: #1a1a1a; stroke-width: 0.8"/>
      </defs>
      <g>
       <use xlink:href="#m8dec1b3d1d" x="53.38625" y="242.370937" style="fill: #1a1a1a; stroke: #1a1a1a; stroke-width: 0.8"/>
      </g>
     </g>
     <g id="text_1">
      <!-- $\mathdefault{0}$ -->
      <g style="fill: #1a1a1a" transform="translate(49.63625 260.781875) scale(0.15 -0.15)">
       <defs>
        <path id="LatinModernMath-Regular-30" d="M 2944 2048 
C 2944 2560 2912 3072 2688 3546 
C 2394 4160 1869 4262 1600 4262 
C 1216 4262 749 4096 486 3501 
C 282 3059 250 2560 250 2048 
C 250 1568 275 992 538 506 
C 813 -13 1280 -141 1594 -141 
C 1939 -141 2426 -6 2707 602 
C 2912 1043 2944 1542 2944 2048 
z
M 2413 2125 
C 2413 1645 2413 1210 2342 800 
C 2246 192 1882 0 1594 0 
C 1344 0 966 160 851 774 
C 781 1158 781 1747 781 2125 
C 781 2534 781 2957 832 3302 
C 954 4064 1434 4122 1594 4122 
C 1805 4122 2227 4006 2349 3373 
C 2413 3014 2413 2528 2413 2125 
z
" transform="scale(0.015625)"/>
       </defs>
       <use xlink:href="#LatinModernMath-Regular-30" transform="translate(0 0.40625)"/>
      </g>
     </g>
    </g>
    <g id="xtick_2">
     <g id="line2d_2">
      <g>
       <use xlink:href="#m8dec1b3d1d" x="109.18625" y="242.370937" style="fill: #1a1a1a; stroke: #1a1a1a; stroke-width: 0.8"/>
      </g>
     </g>
     <g id="text_2">
      <!-- $\mathdefault{1}$ -->
      <g style="fill: #1a1a1a" transform="translate(105.43625 260.781875) scale(0.15 -0.15)">
       <defs>
        <path id="LatinModernMath-Regular-31" d="M 2682 0 
L 2682 198 
L 2477 198 
C 1901 198 1882 269 1882 506 
L 1882 4096 
C 1882 4250 1882 4262 1734 4262 
C 1338 3853 774 3853 570 3853 
L 570 3654 
C 698 3654 1075 3654 1408 3821 
L 1408 506 
C 1408 275 1389 198 813 198 
L 608 198 
L 608 0 
C 832 19 1389 19 1645 19 
C 1901 19 2458 19 2682 0 
z
" transform="scale(0.015625)"/>
       </defs>
       <use xlink:href="#LatinModernMath-Regular-31" transform="translate(0 0.40625)"/>
      </g>
     </g>
    </g>
    <g id="xtick_3">
     <g id="line2d_3">
      <g>
       <use xlink:href="#m8dec1b3d1d" x="164.98625" y="242.370937" style="fill: #1a1a1a; stroke: #1a1a1a; stroke-width: 0.8"/>
      </g>
     </g>
     <g id="text_3">
      <!-- $\mathdefault{2}$ -->
      <g style="fill: #1a1a1a" transform="translate(161.23625 260.781875) scale(0.15 -0.15)">
       <defs>
        <path id="LatinModernMath-Regular-32" d="M 2874 1114 
L 2714 1114 
C 2682 922 2637 640 2573 544 
C 2528 493 2106 493 1965 493 
L 813 493 
L 1491 1152 
C 2490 2035 2874 2381 2874 3021 
C 2874 3750 2298 4262 1517 4262 
C 794 4262 320 3674 320 3104 
C 320 2746 640 2746 659 2746 
C 768 2746 992 2822 992 3085 
C 992 3251 877 3418 653 3418 
C 602 3418 589 3418 570 3411 
C 717 3827 1062 4064 1434 4064 
C 2016 4064 2291 3546 2291 3021 
C 2291 2509 1971 2003 1619 1606 
L 390 237 
C 320 166 320 154 320 0 
L 2694 0 
L 2874 1114 
z
" transform="scale(0.015625)"/>
       </defs>
       <use xlink:href="#LatinModernMath-Regular-32" transform="translate(0 0.40625)"/>
      </g>
     </g>
    </g>
    <g id="xtick_4">
     <g id="line2d_4">
      <g>
       <use xlink:href="#m8dec1b3d1d" x="220.78625" y="242.370937" style="fill: #1a1a1a; stroke: #1a1a1a; stroke-width: 0.8"/>
      </g>
     </g>
     <g id="text_4">
      <!-- $\mathdefault{3}$ -->
      <g style="fill: #1a1a1a" transform="translate(217.03625 260.781875) scale(0.15 -0.15)">
       <defs>
        <path id="LatinModernMath-Regular-33" d="M 2925 1094 
C 2925 1619 2522 2118 1856 2253 
C 2381 2426 2752 2874 2752 3379 
C 2752 3904 2189 4262 1574 4262 
C 928 4262 442 3878 442 3392 
C 442 3181 582 3059 768 3059 
C 966 3059 1094 3200 1094 3386 
C 1094 3706 794 3706 698 3706 
C 896 4019 1318 4102 1549 4102 
C 1811 4102 2163 3962 2163 3386 
C 2163 3309 2150 2938 1984 2656 
C 1792 2349 1574 2330 1414 2323 
C 1363 2317 1210 2304 1165 2304 
C 1114 2298 1069 2291 1069 2227 
C 1069 2157 1114 2157 1222 2157 
L 1504 2157 
C 2029 2157 2266 1722 2266 1094 
C 2266 224 1824 38 1542 38 
C 1267 38 787 147 563 525 
C 787 493 986 634 986 877 
C 986 1107 813 1235 627 1235 
C 474 1235 269 1146 269 864 
C 269 282 864 -141 1562 -141 
C 2342 -141 2925 442 2925 1094 
z
" transform="scale(0.015625)"/>
       </defs>
       <use xlink:href="#LatinModernMath-Regular-33" transform="translate(0 0.40625)"/>
      </g>
     </g>
    </g>
    <g id="xtick_5">
     <g id="line2d_5">
      <g>
       <use xlink:href="#m8dec1b3d1d" x="276.58625" y="242.370937" style="fill: #1a1a1a; stroke: #1a1a1a; stroke-width: 0.8"/>
      </g>
     </g>
     <g id="text_5">
      <!-- $\mathdefault{4}$ -->
      <g style="fill: #1a1a1a" transform="translate(272.83625 260.781875) scale(0.15 -0.15)">
       <defs>
        <path id="LatinModernMath-Regular-34" d="M 3014 1056 
L 3014 1254 
L 2374 1254 
L 2374 4166 
C 2374 4294 2374 4333 2272 4333 
C 2214 4333 2195 4333 2144 4256 
L 179 1254 
L 179 1056 
L 1882 1056 
L 1882 499 
C 1882 269 1869 198 1395 198 
L 1261 198 
L 1261 0 
C 1523 19 1856 19 2125 19 
C 2394 19 2733 19 2995 0 
L 2995 198 
L 2861 198 
C 2387 198 2374 269 2374 499 
L 2374 1056 
L 3014 1056 
z
M 1920 1254 
L 358 1254 
L 1920 3642 
L 1920 1254 
z
" transform="scale(0.015625)"/>
       </defs>
       <use xlink:href="#LatinModernMath-Regular-34" transform="translate(0 0.296875)"/>
      </g>
     </g>
    </g>
    <g id="xtick_6">
     <g id="line2d_6">
      <g>
       <use xlink:href="#m8dec1b3d1d" x="332.38625" y="242.370937" style="fill: #1a1a1a; stroke: #1a1a1a; stroke-width: 0.8"/>
      </g>
     </g>
     <g id="text_6">
      <!-- $\mathdefault{5}$ -->
      <g style="fill: #1a1a1a" transform="translate(328.63625 260.781875) scale(0.15 -0.15)">
       <defs>
        <path id="LatinModernMath-Regular-35" d="M 2874 1286 
C 2874 2048 2349 2688 1658 2688 
C 1350 2688 1075 2586 845 2362 
L 845 3610 
C 973 3571 1184 3526 1389 3526 
C 2176 3526 2624 4109 2624 4192 
C 2624 4230 2605 4262 2560 4262 
C 2560 4262 2541 4262 2509 4243 
C 2381 4186 2067 4058 1638 4058 
C 1382 4058 1088 4102 787 4237 
C 736 4256 710 4256 710 4256 
C 646 4256 646 4205 646 4102 
L 646 2208 
C 646 2093 646 2042 736 2042 
C 781 2042 794 2061 819 2099 
C 890 2202 1126 2547 1645 2547 
C 1978 2547 2138 2253 2189 2138 
C 2291 1901 2304 1651 2304 1331 
C 2304 1107 2304 723 2150 454 
C 1997 205 1760 38 1466 38 
C 998 38 634 378 525 755 
C 544 749 563 742 634 742 
C 845 742 954 902 954 1056 
C 954 1210 845 1370 634 1370 
C 544 1370 320 1325 320 1030 
C 320 480 762 -141 1478 -141 
C 2221 -141 2874 474 2874 1286 
z
" transform="scale(0.015625)"/>
       </defs>
       <use xlink:href="#LatinModernMath-Regular-35" transform="translate(0 0.40625)"/>
      </g>
     </g>
    </g>
    <g id="xtick_7">
     <g id="line2d_7">
      <g>
       <use xlink:href="#m8dec1b3d1d" x="388.18625" y="242.370937" style="fill: #1a1a1a; stroke: #1a1a1a; stroke-width: 0.8"/>
      </g>
     </g>
     <g id="text_7">
      <!-- $\mathdefault{6}$ -->
      <g style="fill: #1a1a1a" transform="translate(384.43625 260.781875) scale(0.15 -0.15)">
       <defs>
        <path id="LatinModernMath-Regular-36" d="M 2925 1306 
C 2925 2118 2355 2733 1645 2733 
C 1210 2733 973 2406 845 2099 
L 845 2253 
C 845 3872 1638 4102 1965 4102 
C 2118 4102 2387 4064 2528 3846 
C 2432 3846 2176 3846 2176 3558 
C 2176 3360 2330 3264 2470 3264 
C 2573 3264 2765 3322 2765 3571 
C 2765 3955 2483 4262 1952 4262 
C 1133 4262 269 3437 269 2022 
C 269 314 1011 -141 1606 -141 
C 2317 -141 2925 461 2925 1306 
z
M 2349 1312 
C 2349 1005 2349 685 2240 454 
C 2048 70 1754 38 1606 38 
C 1203 38 1011 422 973 518 
C 858 819 858 1331 858 1446 
C 858 1946 1062 2586 1638 2586 
C 1741 2586 2035 2586 2234 2189 
C 2349 1952 2349 1626 2349 1312 
z
" transform="scale(0.015625)"/>
       </defs>
       <use xlink:href="#LatinModernMath-Regular-36" transform="translate(0 0.40625)"/>
      </g>
     </g>
    </g>
    <g id="xtick_8">
     <g id="line2d_8">
      <defs>
       <path id="m131efc0c90" d="M 0 0 
L 0 -3 
" style="stroke: #1a1a1a; stroke-width: 0.6"/>
      </defs>
      <g>
       <use xlink:href="#m131efc0c90" x="64.54625" y="242.370937" style="fill: #1a1a1a; stroke: #1a1a1a; stroke-width: 0.6"/>
      </g>
     </g>
    </g>
    <g id="xtick_9">
     <g id="line2d_9">
      <g>
       <use xlink:href="#m131efc0c90" x="75.70625" y="242.370937" style="fill: #1a1a1a; stroke: #1a1a1a; stroke-width: 0.6"/>
      </g>
     </g>
    </g>
    <g id="xtick_10">
     <g id="line2d_10">
      <g>
       <use xlink:href="#m131efc0c90" x="86.86625" y="242.370937" style="fill: #1a1a1a; stroke: #1a1a1a; stroke-width: 0.6"/>
      </g>
     </g>
    </g>
    <g id="xtick_11">
     <g id="line2d_11">
      <g>
       <use xlink:href="#m131efc0c90" x="98.02625" y="242.370937" style="fill: #1a1a1a; stroke: #1a1a1a; stroke-width: 0.6"/>
      </g>
     </g>
    </g>
    <g id="xtick_12">
     <g id="line2d_12">
      <g>
       <use xlink:href="#m131efc0c90" x="120.34625" y="242.370937" style="fill: #1a1a1a; stroke: #1a1a1a; stroke-width: 0.6"/>
      </g>
     </g>
    </g>
    <g id="xtick_13">
     <g id="line2d_13">
      <g>
       <use xlink:href="#m131efc0c90" x="131.50625" y="242.370937" style="fill: #1a1a1a; stroke: #1a1a1a; stroke-width: 0.6"/>
      </g>
     </g>
    </g>
    <g id="xtick_14">
     <g id="line2d_14">
      <g>
       <use xlink:href="#m131efc0c90" x="142.66625" y="242.370937" style="fill: #1a1a1a; stroke: #1a1a1a; stroke-width: 0.6"/>
      </g>
     </g>
    </g>
    <g id="xtick_15">
     <g id="line2d_15">
      <g>
       <use xlink:href="#m131efc0c90" x="153.82625" y="242.370937" style="fill: #1a1a1a; stroke: #1a1a1a; stroke-width: 0.6"/>
      </g>
     </g>
    </g>
    <g id="xtick_16">
     <g id="line2d_16">
      <g>
       <use xlink:href="#m131efc0c90" x="176.14625" y="242.370937" style="fill: #1a1a1a; stroke: #1a1a1a; stroke-width: 0.6"/>
      </g>
     </g>
    </g>
    <g id="xtick_17">
     <g id="line2d_17">
      <g>
       <use xlink:href="#m131efc0c90" x="187.30625" y="242.370937" style="fill: #1a1a1a; stroke: #1a1a1a; stroke-width: 0.6"/>
      </g>
     </g>
    </g>
    <g id="xtick_18">
     <g id="line2d_18">
      <g>
       <use xlink:href="#m131efc0c90" x="198.46625" y="242.370937" style="fill: #1a1a1a; stroke: #1a1a1a; stroke-width: 0.6"/>
      </g>
     </g>
    </g>
    <g id="xtick_19">
     <g id="line2d_19">
      <g>
       <use xlink:href="#m131efc0c90" x="209.62625" y="242.370937" style="fill: #1a1a1a; stroke: #1a1a1a; stroke-width: 0.6"/>
      </g>
     </g>
    </g>
    <g id="xtick_20">
     <g id="line2d_20">
      <g>
       <use xlink:href="#m131efc0c90" x="231.94625" y="242.370937" style="fill: #1a1a1a; stroke: #1a1a1a; stroke-width: 0.6"/>
      </g>
     </g>
    </g>
    <g id="xtick_21">
     <g id="line2d_21">
      <g>
       <use xlink:href="#m131efc0c90" x="243.10625" y="242.370937" style="fill: #1a1a1a; stroke: #1a1a1a; stroke-width: 0.6"/>
      </g>
     </g>
    </g>
    <g id="xtick_22">
     <g id="line2d_22">
      <g>
       <use xlink:href="#m131efc0c90" x="254.26625" y="242.370937" style="fill: #1a1a1a; stroke: #1a1a1a; stroke-width: 0.6"/>
      </g>
     </g>
    </g>
    <g id="xtick_23">
     <g id="line2d_23">
      <g>
       <use xlink:href="#m131efc0c90" x="265.42625" y="242.370937" style="fill: #1a1a1a; stroke: #1a1a1a; stroke-width: 0.6"/>
      </g>
     </g>
    </g>
    <g id="xtick_24">
     <g id="line2d_24">
      <g>
       <use xlink:href="#m131efc0c90" x="287.74625" y="242.370937" style="fill: #1a1a1a; stroke: #1a1a1a; stroke-width: 0.6"/>
      </g>
     </g>
    </g>
    <g id="xtick_25">
     <g id="line2d_25">
      <g>
       <use xlink:href="#m131efc0c90" x="298.90625" y="242.370937" style="fill: #1a1a1a; stroke: #1a1a1a; stroke-width: 0.6"/>
      </g>
     </g>
    </g>
    <g id="xtick_26">
     <g id="line2d_26">
      <g>
       <use xlink:href="#m131efc0c90" x="310.06625" y="242.370937" style="fill: #1a1a1a; stroke: #1a1a1a; stroke-width: 0.6"/>
      </g>
     </g>
    </g>
    <g id="xtick_27">
     <g id="line2d_27">
      <g>
       <use xlink:href="#m131efc0c90" x="321.22625" y="242.370937" style="fill: #1a1a1a; stroke: #1a1a1a; stroke-width: 0.6"/>
      </g>
     </g>
    </g>
    <g id="xtick_28">
     <g id="line2d_28">
      <g>
       <use xlink:href="#m131efc0c90" x="343.54625" y="242.370937" style="fill: #1a1a1a; stroke: #1a1a1a; stroke-width: 0.6"/>
      </g>
     </g>
    </g>
    <g id="xtick_29">
     <g id="line2d_29">
      <g>
       <use xlink:href="#m131efc0c90" x="354.70625" y="242.370937" style="fill: #1a1a1a; stroke: #1a1a1a; stroke-width: 0.6"/>
      </g>
     </g>
    </g>
    <g id="xtick_30">
     <g id="line2d_30">
      <g>
       <use xlink:href="#m131efc0c90" x="365.86625" y="242.370937" style="fill: #1a1a1a; stroke: #1a1a1a; stroke-width: 0.6"/>
      </g>
     </g>
    </g>
    <g id="xtick_31">
     <g id="line2d_31">
      <g>
       <use xlink:href="#m131efc0c90" x="377.02625" y="242.370937" style="fill: #1a1a1a; stroke: #1a1a1a; stroke-width: 0.6"/>
      </g>
     </g>
    </g>
    <g id="text_8">
     <!-- Variable -->
     <g style="fill: #1a1a1a" transform="translate(187.504531 282.185937) scale(0.18 -0.18)">
      <defs>
       <path id="LatinModernMath-Regular-56" d="M 4672 4173 
L 4672 4371 
C 4474 4358 4218 4352 4051 4352 
L 3322 4371 
L 3322 4173 
C 3654 4166 3789 4000 3789 3853 
C 3789 3802 3770 3763 3757 3725 
L 2586 640 
L 1363 3872 
C 1325 3962 1325 3987 1325 3987 
C 1325 4173 1690 4173 1850 4173 
L 1850 4371 
C 1619 4352 1178 4352 934 4352 
L 122 4371 
L 122 4173 
C 538 4173 659 4173 749 3930 
L 2234 0 
C 2278 -122 2310 -141 2394 -141 
C 2502 -141 2515 -109 2547 -19 
L 3974 3744 
C 4064 3981 4237 4166 4672 4173 
z
" transform="scale(0.015625)"/>
       <path id="LatinModernMath-Regular-61" d="M 3091 570 
L 3091 928 
L 2931 928 
L 2931 570 
C 2931 198 2771 160 2701 160 
C 2490 160 2464 448 2464 480 
L 2464 1760 
C 2464 2029 2464 2278 2234 2515 
C 1984 2765 1664 2867 1357 2867 
C 832 2867 390 2566 390 2144 
C 390 1952 518 1843 685 1843 
C 864 1843 979 1971 979 2138 
C 979 2214 947 2426 653 2432 
C 826 2656 1139 2726 1344 2726 
C 1658 2726 2022 2477 2022 1907 
L 2022 1670 
C 1696 1651 1248 1632 845 1440 
C 365 1222 205 890 205 608 
C 205 90 826 -70 1229 -70 
C 1651 -70 1946 186 2067 486 
C 2093 230 2266 -38 2566 -38 
C 2701 -38 3091 51 3091 570 
z
M 2022 896 
C 2022 288 1562 70 1274 70 
C 960 70 698 294 698 614 
C 698 966 966 1498 2022 1536 
L 2022 896 
z
" transform="scale(0.015625)"/>
       <path id="LatinModernMath-Regular-72" d="M 2330 2438 
C 2330 2643 2131 2829 1856 2829 
C 1389 2829 1158 2400 1069 2125 
L 1069 2829 
L 179 2758 
L 179 2560 
C 627 2560 678 2515 678 2202 
L 678 486 
C 678 198 608 198 179 198 
L 179 0 
L 909 19 
C 1165 19 1466 19 1722 0 
L 1722 198 
L 1587 198 
C 1114 198 1101 269 1101 499 
L 1101 1485 
C 1101 2118 1370 2688 1856 2688 
C 1901 2688 1914 2688 1926 2682 
C 1907 2675 1779 2598 1779 2432 
C 1779 2253 1914 2157 2054 2157 
C 2170 2157 2330 2234 2330 2438 
z
" transform="scale(0.015625)"/>
       <path id="LatinModernMath-Regular-69" d="M 1581 0 
L 1581 198 
C 1158 198 1133 230 1133 480 
L 1133 2829 
L 237 2758 
L 237 2560 
C 653 2560 710 2522 710 2208 
L 710 486 
C 710 198 640 198 211 198 
L 211 0 
L 915 19 
C 1139 19 1363 6 1581 0 
z
M 1229 3866 
C 1229 4038 1082 4205 890 4205 
C 672 4205 544 4026 544 3866 
C 544 3693 691 3526 883 3526 
C 1101 3526 1229 3706 1229 3866 
z
" transform="scale(0.015625)"/>
       <path id="LatinModernMath-Regular-62" d="M 3334 1382 
C 3334 2195 2707 2829 1978 2829 
C 1478 2829 1203 2528 1101 2413 
L 1101 4442 
L 179 4371 
L 179 4173 
C 627 4173 678 4128 678 3814 
L 678 0 
L 838 0 
L 1069 397 
C 1165 250 1434 -70 1907 -70 
C 2669 -70 3334 557 3334 1382 
z
M 2803 1389 
C 2803 1152 2790 768 2605 480 
C 2470 282 2227 70 1882 70 
C 1594 70 1363 224 1210 461 
C 1120 595 1120 614 1120 730 
L 1120 2048 
C 1120 2170 1120 2176 1190 2278 
C 1440 2637 1792 2688 1946 2688 
C 2234 2688 2464 2522 2618 2278 
C 2784 2016 2803 1651 2803 1389 
z
" transform="scale(0.015625)"/>
       <path id="LatinModernMath-Regular-6c" d="M 1632 0 
L 1632 198 
C 1203 198 1133 198 1133 486 
L 1133 4442 
L 211 4371 
L 211 4173 
C 659 4173 710 4128 710 3814 
L 710 486 
C 710 198 640 198 211 198 
L 211 0 
L 922 19 
L 1632 0 
z
" transform="scale(0.015625)"/>
       <path id="LatinModernMath-Regular-65" d="M 2656 762 
C 2656 826 2605 838 2573 838 
C 2515 838 2502 800 2490 749 
C 2266 90 1690 90 1626 90 
C 1306 90 1050 282 902 518 
C 710 826 710 1248 710 1478 
L 2496 1478 
C 2637 1478 2656 1478 2656 1613 
C 2656 2246 2310 2867 1510 2867 
C 768 2867 179 2208 179 1408 
C 179 550 851 -70 1587 -70 
C 2368 -70 2656 640 2656 762 
z
M 2234 1613 
L 717 1613 
C 755 2566 1293 2726 1510 2726 
C 2170 2726 2234 1862 2234 1613 
z
" transform="scale(0.015625)"/>
      </defs>
      <use xlink:href="#LatinModernMath-Regular-56"/>
      <use xlink:href="#LatinModernMath-Regular-61" x="74.999985"/>
      <use xlink:href="#LatinModernMath-Regular-72" x="124.999969"/>
      <use xlink:href="#LatinModernMath-Regular-69" x="164.199966"/>
      <use xlink:href="#LatinModernMath-Regular-61" x="191.999954"/>
      <use xlink:href="#LatinModernMath-Regular-62" x="241.999939"/>
      <use xlink:href="#LatinModernMath-Regular-6c" x="297.59993"/>
      <use xlink:href="#LatinModernMath-Regular-65" x="325.399918"/>
     </g>
    </g>
   </g>
   <g id="matplotlib.axis_2">
    <g id="ytick_1">
     <g id="line2d_32">
      <defs>
       <path id="mc947610920" d="M 0 0 
L 6 0 
" style="stroke: #1a1a1a; stroke-width: 0.8"/>
      </defs>
      <g>
       <use xlink:href="#mc947610920" x="53.38625" y="242.370937" style="fill: #1a1a1a; stroke: #1a1a1a; stroke-width: 0.8"/>
      </g>
     </g>
     <g id="text_9">
      <!-- $\mathdefault{0.0}$ -->
      <g style="fill: #1a1a1a" transform="translate(29.18625 247.576406) scale(0.15 -0.15)">
       <defs>
        <path id="LatinModernMath-Regular-2e" d="M 1229 339 
C 1229 525 1075 678 890 678 
C 704 678 550 525 550 339 
C 550 154 704 0 890 0 
C 1075 0 1229 154 1229 339 
z
" transform="scale(0.015625)"/>
       </defs>
       <use xlink:href="#LatinModernMath-Regular-30" transform="translate(0 0.40625)"/>
       <use xlink:href="#LatinModernMath-Regular-2e" transform="translate(49.999985 0.40625)"/>
       <use xlink:href="#LatinModernMath-Regular-30" transform="translate(77.799973 0.40625)"/>
      </g>
     </g>
    </g>
    <g id="ytick_2">
     <g id="line2d_33">
      <g>
       <use xlink:href="#mc947610920" x="53.38625" y="210.337709" style="fill: #1a1a1a; stroke: #1a1a1a; stroke-width: 0.8"/>
      </g>
     </g>
     <g id="text_10">
      <!-- $\mathdefault{0.2}$ -->
      <g style="fill: #1a1a1a" transform="translate(29.18625 215.543178) scale(0.15 -0.15)">
       <use xlink:href="#LatinModernMath-Regular-30" transform="translate(0 0.40625)"/>
       <use xlink:href="#LatinModernMath-Regular-2e" transform="translate(49.999985 0.40625)"/>
       <use xlink:href="#LatinModernMath-Regular-32" transform="translate(77.799973 0.40625)"/>
      </g>
     </g>
    </g>
    <g id="ytick_3">
     <g id="line2d_34">
      <g>
       <use xlink:href="#mc947610920" x="53.38625" y="178.304481" style="fill: #1a1a1a; stroke: #1a1a1a; stroke-width: 0.8"/>
      </g>
     </g>
     <g id="text_11">
      <!-- $\mathdefault{0.4}$ -->
      <g style="fill: #1a1a1a" transform="translate(29.18625 183.509949) scale(0.15 -0.15)">
       <use xlink:href="#LatinModernMath-Regular-30" transform="translate(0 0.296875)"/>
       <use xlink:href="#LatinModernMath-Regular-2e" transform="translate(49.999985 0.296875)"/>
       <use xlink:href="#LatinModernMath-Regular-34" transform="translate(77.799973 0.296875)"/>
      </g>
     </g>
    </g>
    <g id="ytick_4">
     <g id="line2d_35">
      <g>
       <use xlink:href="#mc947610920" x="53.38625" y="146.271252" style="fill: #1a1a1a; stroke: #1a1a1a; stroke-width: 0.8"/>
      </g>
     </g>
     <g id="text_12">
      <!-- $\mathdefault{0.6}$ -->
      <g style="fill: #1a1a1a" transform="translate(29.18625 151.476721) scale(0.15 -0.15)">
       <use xlink:href="#LatinModernMath-Regular-30" transform="translate(0 0.40625)"/>
       <use xlink:href="#LatinModernMath-Regular-2e" transform="translate(49.999985 0.40625)"/>
       <use xlink:href="#LatinModernMath-Regular-36" transform="translate(77.799973 0.40625)"/>
      </g>
     </g>
    </g>
    <g id="ytick_5">
     <g id="line2d_36">
      <g>
       <use xlink:href="#mc947610920" x="53.38625" y="114.238024" style="fill: #1a1a1a; stroke: #1a1a1a; stroke-width: 0.8"/>
      </g>
     </g>
     <g id="text_13">
      <!-- $\mathdefault{0.8}$ -->
      <g style="fill: #1a1a1a" transform="translate(29.18625 119.443493) scale(0.15 -0.15)">
       <defs>
        <path id="LatinModernMath-Regular-38" d="M 2925 1075 
C 2925 1306 2854 1594 2611 1862 
C 2490 1997 2387 2061 1978 2317 
C 2438 2554 2752 2886 2752 3309 
C 2752 3898 2182 4262 1600 4262 
C 960 4262 442 3789 442 3194 
C 442 3078 454 2790 723 2490 
C 794 2413 1030 2253 1190 2144 
C 819 1958 269 1600 269 966 
C 269 288 922 -141 1594 -141 
C 2317 -141 2925 390 2925 1075 
z
M 2470 3309 
C 2470 2944 2221 2637 1837 2413 
L 1043 2925 
C 749 3117 723 3334 723 3443 
C 723 3834 1139 4102 1594 4102 
C 2061 4102 2470 3770 2470 3309 
z
M 2605 845 
C 2605 371 2125 38 1600 38 
C 1050 38 589 435 589 966 
C 589 1338 794 1747 1338 2048 
L 2125 1549 
C 2304 1427 2605 1235 2605 845 
z
" transform="scale(0.015625)"/>
       </defs>
       <use xlink:href="#LatinModernMath-Regular-30" transform="translate(0 0.40625)"/>
       <use xlink:href="#LatinModernMath-Regular-2e" transform="translate(49.999985 0.40625)"/>
       <use xlink:href="#LatinModernMath-Regular-38" transform="translate(77.799973 0.40625)"/>
      </g>
     </g>
    </g>
    <g id="ytick_6">
     <g id="line2d_37">
      <g>
       <use xlink:href="#mc947610920" x="53.38625" y="82.204795" style="fill: #1a1a1a; stroke: #1a1a1a; stroke-width: 0.8"/>
      </g>
     </g>
     <g id="text_14">
      <!-- $\mathdefault{1.0}$ -->
      <g style="fill: #1a1a1a" transform="translate(29.18625 87.410264) scale(0.15 -0.15)">
       <use xlink:href="#LatinModernMath-Regular-31" transform="translate(0 0.40625)"/>
       <use xlink:href="#LatinModernMath-Regular-2e" transform="translate(49.999985 0.40625)"/>
       <use xlink:href="#LatinModernMath-Regular-30" transform="translate(77.799973 0.40625)"/>
      </g>
     </g>
    </g>
    <g id="ytick_7">
     <g id="line2d_38">
      <g>
       <use xlink:href="#mc947610920" x="53.38625" y="50.171567" style="fill: #1a1a1a; stroke: #1a1a1a; stroke-width: 0.8"/>
      </g>
     </g>
     <g id="text_15">
      <!-- $\mathdefault{1.2}$ -->
      <g style="fill: #1a1a1a" transform="translate(29.18625 55.377036) scale(0.15 -0.15)">
       <use xlink:href="#LatinModernMath-Regular-31" transform="translate(0 0.40625)"/>
       <use xlink:href="#LatinModernMath-Regular-2e" transform="translate(49.999985 0.40625)"/>
       <use xlink:href="#LatinModernMath-Regular-32" transform="translate(77.799973 0.40625)"/>
      </g>
     </g>
    </g>
    <g id="ytick_8">
     <g id="line2d_39">
      <defs>
       <path id="m5f9d1e6504" d="M 0 0 
L 3 0 
" style="stroke: #1a1a1a; stroke-width: 0.6"/>
      </defs>
      <g>
       <use xlink:href="#m5f9d1e6504" x="53.38625" y="234.36263" style="fill: #1a1a1a; stroke: #1a1a1a; stroke-width: 0.6"/>
      </g>
     </g>
    </g>
    <g id="ytick_9">
     <g id="line2d_40">
      <g>
       <use xlink:href="#m5f9d1e6504" x="53.38625" y="226.354323" style="fill: #1a1a1a; stroke: #1a1a1a; stroke-width: 0.6"/>
      </g>
     </g>
    </g>
    <g id="ytick_10">
     <g id="line2d_41">
      <g>
       <use xlink:href="#m5f9d1e6504" x="53.38625" y="218.346016" style="fill: #1a1a1a; stroke: #1a1a1a; stroke-width: 0.6"/>
      </g>
     </g>
    </g>
    <g id="ytick_11">
     <g id="line2d_42">
      <g>
       <use xlink:href="#m5f9d1e6504" x="53.38625" y="202.329402" style="fill: #1a1a1a; stroke: #1a1a1a; stroke-width: 0.6"/>
      </g>
     </g>
    </g>
    <g id="ytick_12">
     <g id="line2d_43">
      <g>
       <use xlink:href="#m5f9d1e6504" x="53.38625" y="194.321095" style="fill: #1a1a1a; stroke: #1a1a1a; stroke-width: 0.6"/>
      </g>
     </g>
    </g>
    <g id="ytick_13">
     <g id="line2d_44">
      <g>
       <use xlink:href="#m5f9d1e6504" x="53.38625" y="186.312788" style="fill: #1a1a1a; stroke: #1a1a1a; stroke-width: 0.6"/>
      </g>
     </g>
    </g>
    <g id="ytick_14">
     <g id="line2d_45">
      <g>
       <use xlink:href="#m5f9d1e6504" x="53.38625" y="170.296174" style="fill: #1a1a1a; stroke: #1a1a1a; stroke-width: 0.6"/>
      </g>
     </g>
    </g>
    <g id="ytick_15">
     <g id="line2d_46">
      <g>
       <use xlink:href="#m5f9d1e6504" x="53.38625" y="162.287866" style="fill: #1a1a1a; stroke: #1a1a1a; stroke-width: 0.6"/>
      </g>
     </g>
    </g>
    <g id="ytick_16">
     <g id="line2d_47">
      <g>
       <use xlink:href="#m5f9d1e6504" x="53.38625" y="154.279559" style="fill: #1a1a1a; stroke: #1a1a1a; stroke-width: 0.6"/>
      </g>
     </g>
    </g>
    <g id="ytick_17">
     <g id="line2d_48">
      <g>
       <use xlink:href="#m5f9d1e6504" x="53.38625" y="138.262945" style="fill: #1a1a1a; stroke: #1a1a1a; stroke-width: 0.6"/>
      </g>
     </g>
    </g>
    <g id="ytick_18">
     <g id="line2d_49">
      <g>
       <use xlink:href="#m5f9d1e6504" x="53.38625" y="130.254638" style="fill: #1a1a1a; stroke: #1a1a1a; stroke-width: 0.6"/>
      </g>
     </g>
    </g>
    <g id="ytick_19">
     <g id="line2d_50">
      <g>
       <use xlink:href="#m5f9d1e6504" x="53.38625" y="122.246331" style="fill: #1a1a1a; stroke: #1a1a1a; stroke-width: 0.6"/>
      </g>
     </g>
    </g>
    <g id="ytick_20">
     <g id="line2d_51">
      <g>
       <use xlink:href="#m5f9d1e6504" x="53.38625" y="106.229717" style="fill: #1a1a1a; stroke: #1a1a1a; stroke-width: 0.6"/>
      </g>
     </g>
    </g>
    <g id="ytick_21">
     <g id="line2d_52">
      <g>
       <use xlink:href="#m5f9d1e6504" x="53.38625" y="98.22141" style="fill: #1a1a1a; stroke: #1a1a1a; stroke-width: 0.6"/>
      </g>
     </g>
    </g>
    <g id="ytick_22">
     <g id="line2d_53">
      <g>
       <use xlink:href="#m5f9d1e6504" x="53.38625" y="90.213103" style="fill: #1a1a1a; stroke: #1a1a1a; stroke-width: 0.6"/>
      </g>
     </g>
    </g>
    <g id="ytick_23">
     <g id="line2d_54">
      <g>
       <use xlink:href="#m5f9d1e6504" x="53.38625" y="74.196488" style="fill: #1a1a1a; stroke: #1a1a1a; stroke-width: 0.6"/>
      </g>
     </g>
    </g>
    <g id="ytick_24">
     <g id="line2d_55">
      <g>
       <use xlink:href="#m5f9d1e6504" x="53.38625" y="66.188181" style="fill: #1a1a1a; stroke: #1a1a1a; stroke-width: 0.6"/>
      </g>
     </g>
    </g>
    <g id="ytick_25">
     <g id="line2d_56">
      <g>
       <use xlink:href="#m5f9d1e6504" x="53.38625" y="58.179874" style="fill: #1a1a1a; stroke: #1a1a1a; stroke-width: 0.6"/>
      </g>
     </g>
    </g>
    <g id="ytick_26">
     <g id="line2d_57">
      <g>
       <use xlink:href="#m5f9d1e6504" x="53.38625" y="42.16326" style="fill: #1a1a1a; stroke: #1a1a1a; stroke-width: 0.6"/>
      </g>
     </g>
    </g>
    <g id="ytick_27">
     <g id="line2d_58">
      <g>
       <use xlink:href="#m5f9d1e6504" x="53.38625" y="34.154953" style="fill: #1a1a1a; stroke: #1a1a1a; stroke-width: 0.6"/>
      </g>
     </g>
    </g>
    <g id="ytick_28">
     <g id="line2d_59">
      <g>
       <use xlink:href="#m5f9d1e6504" x="53.38625" y="26.146646" style="fill: #1a1a1a; stroke: #1a1a1a; stroke-width: 0.6"/>
      </g>
     </g>
    </g>
    <g id="text_16">
     <!-- Entries -->
     <g style="fill: #1a1a1a" transform="translate(19.693125 159.6975) rotate(-90) scale(0.18 -0.18)">
      <defs>
       <path id="LatinModernMath-Regular-45" d="M 4173 1651 
L 4013 1651 
C 3853 666 3706 198 2605 198 
L 1754 198 
C 1453 198 1440 243 1440 454 
L 1440 2163 
L 2016 2163 
C 2637 2163 2707 1958 2707 1414 
L 2867 1414 
L 2867 3110 
L 2707 3110 
C 2707 2560 2637 2362 2016 2362 
L 1440 2362 
L 1440 3898 
C 1440 4109 1453 4154 1754 4154 
L 2579 4154 
C 3558 4154 3731 3802 3834 2912 
L 3994 2912 
L 3814 4352 
L 211 4352 
L 211 4154 
L 365 4154 
C 858 4154 870 4083 870 3853 
L 870 499 
C 870 269 858 198 365 198 
L 211 198 
L 211 0 
L 3904 0 
L 4173 1651 
z
" transform="scale(0.015625)"/>
       <path id="LatinModernMath-Regular-6e" d="M 3424 0 
L 3424 198 
C 3091 198 2931 198 2925 390 
L 2925 1613 
C 2925 2163 2925 2362 2726 2592 
C 2637 2701 2426 2829 2054 2829 
C 1587 2829 1286 2554 1107 2157 
L 1107 2829 
L 205 2758 
L 205 2560 
C 653 2560 704 2515 704 2202 
L 704 486 
C 704 198 634 198 205 198 
L 205 0 
L 928 19 
L 1645 0 
L 1645 198 
C 1216 198 1146 198 1146 486 
L 1146 1664 
C 1146 2330 1600 2688 2010 2688 
C 2413 2688 2483 2342 2483 1978 
L 2483 486 
C 2483 198 2413 198 1984 198 
L 1984 0 
L 2707 19 
L 3424 0 
z
" transform="scale(0.015625)"/>
       <path id="LatinModernMath-Regular-74" d="M 2125 794 
L 2125 1158 
L 1965 1158 
L 1965 806 
C 1965 333 1773 90 1536 90 
C 1107 90 1107 672 1107 781 
L 1107 2560 
L 2022 2560 
L 2022 2758 
L 1107 2758 
L 1107 3936 
L 947 3936 
C 941 3411 749 2726 122 2701 
L 122 2560 
L 666 2560 
L 666 794 
C 666 6 1261 -70 1491 -70 
C 1946 -70 2125 384 2125 794 
z
" transform="scale(0.015625)"/>
       <path id="LatinModernMath-Regular-73" d="M 2304 819 
C 2304 1158 2112 1350 2035 1427 
C 1824 1632 1574 1683 1306 1734 
C 947 1805 518 1888 518 2259 
C 518 2483 685 2746 1235 2746 
C 1939 2746 1971 2170 1984 1971 
C 1990 1914 2061 1914 2061 1914 
C 2144 1914 2144 1946 2144 2067 
L 2144 2714 
C 2144 2822 2144 2867 2074 2867 
C 2042 2867 2029 2867 1946 2790 
C 1926 2765 1862 2707 1837 2688 
C 1594 2867 1331 2867 1235 2867 
C 454 2867 211 2438 211 2080 
C 211 1856 314 1677 486 1536 
C 691 1370 870 1331 1331 1242 
C 1472 1216 1997 1114 1997 653 
C 1997 326 1773 70 1274 70 
C 736 70 506 435 384 979 
C 365 1062 358 1088 294 1088 
C 211 1088 211 1043 211 928 
L 211 83 
C 211 -26 211 -70 282 -70 
C 314 -70 320 -64 442 58 
C 454 70 454 83 570 205 
C 851 -64 1139 -70 1274 -70 
C 2010 -70 2304 358 2304 819 
z
" transform="scale(0.015625)"/>
      </defs>
      <use xlink:href="#LatinModernMath-Regular-45"/>
      <use xlink:href="#LatinModernMath-Regular-6e" x="68.099991"/>
      <use xlink:href="#LatinModernMath-Regular-74" x="123.699982"/>
      <use xlink:href="#LatinModernMath-Regular-72" x="162.599976"/>
      <use xlink:href="#LatinModernMath-Regular-69" x="201.799973"/>
      <use xlink:href="#LatinModernMath-Regular-65" x="229.59996"/>
      <use xlink:href="#LatinModernMath-Regular-73" x="273.999954"/>
     </g>
    </g>
    <g id="text_17">
     <!-- $\times\mathdefault{10^{8}}\mathdefault{}$ -->
     <g style="fill: #1a1a1a" transform="translate(53.38625 17.610937) scale(0.15 -0.15)">
      <defs>
       <path id="LatinModernMath-Regular-d7" d="M 3994 96 
C 4045 141 4045 224 3994 275 
L 2669 1600 
L 3994 2925 
C 4045 2976 4045 3059 3994 3104 
C 3949 3155 3866 3155 3814 3104 
L 2490 1779 
L 1165 3104 
C 1114 3155 1030 3155 986 3104 
C 934 3059 934 2976 986 2925 
L 2310 1600 
L 986 275 
C 934 224 934 141 986 96 
C 1030 45 1114 45 1165 96 
L 2490 1421 
L 3814 96 
C 3866 45 3949 45 3994 96 
z
" transform="scale(0.015625)"/>
      </defs>
      <use xlink:href="#LatinModernMath-Regular-d7" transform="translate(0 0.21875)"/>
      <use xlink:href="#LatinModernMath-Regular-31" transform="translate(77.799988 0.21875)"/>
      <use xlink:href="#LatinModernMath-Regular-30" transform="translate(127.799973 0.21875)"/>
      <use xlink:href="#LatinModernMath-Regular-38" transform="translate(178.554098 30.384375) scale(0.7)"/>
     </g>
    </g>
   </g>
   <g id="legend_1">
    <g id="patch_10">
     <path d="M 280.596875 39.810937 
L 304.596875 39.810937 
L 304.596875 31.410937 
L 280.596875 31.410937 
z
" style="fill: #348abd; stroke: #000000; stroke-width: 0.5; stroke-linejoin: miter"/>
    </g>
    <g id="text_18">
     <!-- Gaussian -->
     <g style="fill: #1a1a1a" transform="translate(314.196875 39.810937) scale(0.12 -0.12)">
      <defs>
       <path id="LatinModernMath-Regular-47" d="M 4704 1549 
L 4704 1747 
L 3923 1728 
C 3667 1728 3123 1728 2893 1747 
L 2893 1549 
L 3098 1549 
C 3674 1549 3693 1478 3693 1242 
L 3693 832 
C 3693 115 2880 58 2701 58 
C 2285 58 1018 282 1018 2189 
C 1018 4102 2278 4314 2662 4314 
C 3347 4314 3930 3738 4058 2797 
C 4070 2707 4070 2688 4160 2688 
C 4262 2688 4262 2707 4262 2842 
L 4262 4358 
C 4262 4467 4262 4512 4192 4512 
C 4166 4512 4141 4512 4090 4435 
L 3770 3962 
C 3565 4166 3219 4512 2586 4512 
C 1395 4512 358 3501 358 2189 
C 358 877 1382 -141 2598 -141 
C 3066 -141 3578 26 3795 403 
C 3878 262 4134 6 4205 6 
C 4262 6 4262 58 4262 154 
L 4262 1267 
C 4262 1517 4288 1549 4704 1549 
z
" transform="scale(0.015625)"/>
       <path id="LatinModernMath-Regular-75" d="M 3424 0 
L 3424 198 
C 2976 198 2925 243 2925 557 
L 2925 2829 
L 1984 2758 
L 1984 2560 
C 2432 2560 2483 2515 2483 2202 
L 2483 1062 
C 2483 506 2176 70 1709 70 
C 1171 70 1146 371 1146 704 
L 1146 2829 
L 205 2758 
L 205 2560 
C 704 2560 704 2541 704 1971 
L 704 1011 
C 704 512 704 -70 1677 -70 
C 2035 -70 2317 109 2502 506 
L 2502 -70 
L 3424 0 
z
" transform="scale(0.015625)"/>
      </defs>
      <use xlink:href="#LatinModernMath-Regular-47"/>
      <use xlink:href="#LatinModernMath-Regular-61" x="78.499985"/>
      <use xlink:href="#LatinModernMath-Regular-75" x="128.499969"/>
      <use xlink:href="#LatinModernMath-Regular-73" x="184.09996"/>
      <use xlink:href="#LatinModernMath-Regular-73" x="223.499954"/>
      <use xlink:href="#LatinModernMath-Regular-69" x="262.899948"/>
      <use xlink:href="#LatinModernMath-Regular-61" x="290.699936"/>
      <use xlink:href="#LatinModernMath-Regular-6e" x="340.699921"/>
     </g>
    </g>
    <g id="patch_11">
     <path d="M 280.596875 56.539687 
L 304.596875 56.539687 
L 304.596875 48.139687 
L 280.596875 48.139687 
z
" style="fill: #e24a33; stroke: #000000; stroke-width: 0.5; stroke-linejoin: miter"/>
    </g>
    <g id="text_19">
     <!-- Exponential -->
     <g style="fill: #1a1a1a" transform="translate(314.196875 56.539687) scale(0.12 -0.12)">
      <defs>
       <path id="LatinModernMath-Regular-78" d="M 3302 0 
L 3302 198 
C 2957 198 2842 211 2694 397 
L 1837 1504 
C 2029 1747 2272 2061 2426 2227 
C 2624 2458 2886 2554 3187 2560 
L 3187 2758 
C 3021 2746 2829 2739 2662 2739 
C 2470 2739 2131 2752 2048 2758 
L 2048 2560 
C 2182 2547 2234 2464 2234 2362 
C 2234 2259 2170 2176 2138 2138 
L 1741 1638 
L 1242 2285 
C 1184 2349 1184 2362 1184 2400 
C 1184 2496 1280 2554 1408 2560 
L 1408 2758 
L 717 2739 
C 582 2739 282 2746 109 2758 
L 109 2560 
C 557 2560 563 2554 864 2170 
L 1498 1344 
C 1197 960 1197 947 896 582 
C 589 211 211 198 77 198 
L 77 0 
C 243 13 442 19 608 19 
L 1216 0 
L 1216 198 
C 1075 218 1030 301 1030 397 
C 1030 538 1216 749 1606 1210 
L 2093 570 
C 2144 499 2227 397 2227 358 
C 2227 301 2170 205 1997 198 
L 1997 0 
L 2688 19 
C 2861 19 3110 13 3302 0 
z
" transform="scale(0.015625)"/>
       <path id="LatinModernMath-Regular-70" d="M 3334 1382 
C 3334 2195 2714 2829 1997 2829 
C 1498 2829 1229 2547 1101 2406 
L 1101 2829 
L 179 2758 
L 179 2560 
C 634 2560 678 2522 678 2240 
L 678 -755 
C 678 -1043 608 -1043 179 -1043 
L 179 -1242 
L 896 -1222 
L 1619 -1242 
L 1619 -1043 
C 1190 -1043 1120 -1043 1120 -755 
L 1120 320 
L 1120 378 
C 1152 275 1421 -70 1907 -70 
C 2669 -70 3334 557 3334 1382 
z
M 2803 1382 
C 2803 608 2355 70 1882 70 
C 1626 70 1382 198 1210 461 
C 1120 595 1120 602 1120 730 
L 1120 2157 
C 1306 2483 1619 2669 1946 2669 
C 2413 2669 2803 2106 2803 1382 
z
" transform="scale(0.015625)"/>
       <path id="LatinModernMath-Regular-6f" d="M 3014 1370 
C 3014 2189 2374 2867 1600 2867 
C 800 2867 179 2170 179 1370 
C 179 544 845 -70 1594 -70 
C 2368 -70 3014 557 3014 1370 
z
M 2483 1421 
C 2483 1190 2483 845 2342 563 
C 2202 275 1920 90 1600 90 
C 1325 90 1043 224 870 518 
C 710 800 710 1190 710 1421 
C 710 1670 710 2016 864 2298 
C 1037 2592 1338 2726 1594 2726 
C 1875 2726 2150 2586 2317 2310 
C 2483 2035 2483 1664 2483 1421 
z
" transform="scale(0.015625)"/>
      </defs>
      <use xlink:href="#LatinModernMath-Regular-45"/>
      <use xlink:href="#LatinModernMath-Regular-78" x="68.099991"/>
      <use xlink:href="#LatinModernMath-Regular-70" x="120.899979"/>
      <use xlink:href="#LatinModernMath-Regular-6f" x="176.499969"/>
      <use xlink:href="#LatinModernMath-Regular-6e" x="226.499954"/>
      <use xlink:href="#LatinModernMath-Regular-65" x="282.099945"/>
      <use xlink:href="#LatinModernMath-Regular-6e" x="326.499939"/>
      <use xlink:href="#LatinModernMath-Regular-74" x="382.09993"/>
      <use xlink:href="#LatinModernMath-Regular-69" x="420.999924"/>
      <use xlink:href="#LatinModernMath-Regular-61" x="448.799911"/>
      <use xlink:href="#LatinModernMath-Regular-6c" x="498.799896"/>
     </g>
    </g>
    <g id="patch_12">
     <path d="M 280.596875 73.268437 
L 304.596875 73.268437 
L 304.596875 64.868437 
L 280.596875 64.868437 
z
" style="fill: #988ed5; stroke: #000000; stroke-width: 0.5; stroke-linejoin: miter"/>
    </g>
    <g id="text_20">
     <!-- Log-normal -->
     <g style="fill: #1a1a1a" transform="translate(314.196875 73.268437) scale(0.12 -0.12)">
      <defs>
       <path id="LatinModernMath-Regular-4c" d="M 3725 1651 
L 3565 1651 
C 3494 998 3405 198 2278 198 
L 1754 198 
C 1453 198 1440 243 1440 454 
L 1440 3866 
C 1440 4083 1440 4173 2048 4173 
L 2259 4173 
L 2259 4371 
C 2029 4352 1446 4352 1184 4352 
C 934 4352 435 4352 211 4371 
L 211 4173 
L 365 4173 
C 858 4173 870 4102 870 3872 
L 870 499 
C 870 269 858 198 365 198 
L 211 198 
L 211 0 
L 3546 0 
L 3725 1651 
z
" transform="scale(0.015625)"/>
       <path id="LatinModernMath-Regular-67" d="M 3104 2586 
C 3104 2694 3027 2899 2778 2899 
C 2650 2899 2368 2861 2099 2598 
C 1830 2810 1562 2829 1421 2829 
C 826 2829 384 2387 384 1894 
C 384 1613 525 1370 685 1235 
C 602 1139 486 928 486 704 
C 486 506 570 262 768 134 
C 384 26 179 -250 179 -506 
C 179 -966 813 -1318 1594 -1318 
C 2349 -1318 3014 -992 3014 -493 
C 3014 -269 2925 58 2598 237 
C 2259 416 1888 416 1498 416 
C 1338 416 1062 416 1018 422 
C 813 448 678 646 678 851 
C 678 877 678 1024 787 1152 
C 1037 973 1299 954 1421 954 
C 2016 954 2458 1395 2458 1888 
C 2458 2125 2355 2362 2195 2509 
C 2426 2726 2656 2758 2771 2758 
C 2771 2758 2816 2758 2835 2752 
C 2765 2726 2733 2656 2733 2579 
C 2733 2470 2816 2394 2918 2394 
C 2982 2394 3104 2438 3104 2586 
z
M 1978 1894 
C 1978 1722 1971 1517 1875 1357 
C 1824 1280 1677 1101 1421 1101 
C 864 1101 864 1741 864 1888 
C 864 2061 870 2266 966 2426 
C 1018 2502 1165 2682 1421 2682 
C 1978 2682 1978 2042 1978 1894 
z
M 2682 -506 
C 2682 -851 2227 -1171 1600 -1171 
C 954 -1171 512 -845 512 -506 
C 512 -211 755 26 1037 45 
L 1414 45 
C 1965 45 2682 45 2682 -506 
z
" transform="scale(0.015625)"/>
       <path id="LatinModernMath-Regular-2d" d="M 1766 1197 
L 1766 1568 
L 70 1568 
L 70 1197 
L 1766 1197 
z
" transform="scale(0.015625)"/>
       <path id="LatinModernMath-Regular-6d" d="M 5203 0 
L 5203 198 
C 4870 198 4710 198 4704 390 
L 4704 1613 
C 4704 2163 4704 2362 4506 2592 
C 4416 2701 4205 2829 3834 2829 
C 3296 2829 3014 2445 2906 2202 
C 2816 2758 2342 2829 2054 2829 
C 1587 2829 1286 2554 1107 2157 
L 1107 2829 
L 205 2758 
L 205 2560 
C 653 2560 704 2515 704 2202 
L 704 486 
C 704 198 634 198 205 198 
L 205 0 
L 928 19 
L 1645 0 
L 1645 198 
C 1216 198 1146 198 1146 486 
L 1146 1664 
C 1146 2330 1600 2688 2010 2688 
C 2413 2688 2483 2342 2483 1978 
L 2483 486 
C 2483 198 2413 198 1984 198 
L 1984 0 
L 2707 19 
L 3424 0 
L 3424 198 
C 2995 198 2925 198 2925 486 
L 2925 1664 
C 2925 2330 3379 2688 3789 2688 
C 4192 2688 4262 2342 4262 1978 
L 4262 486 
C 4262 198 4192 198 3763 198 
L 3763 0 
L 4486 19 
L 5203 0 
z
" transform="scale(0.015625)"/>
      </defs>
      <use xlink:href="#LatinModernMath-Regular-4c"/>
      <use xlink:href="#LatinModernMath-Regular-6f" x="62.499985"/>
      <use xlink:href="#LatinModernMath-Regular-67" x="112.499969"/>
      <use xlink:href="#LatinModernMath-Regular-2d" x="162.499954"/>
      <use xlink:href="#LatinModernMath-Regular-6e" x="195.799942"/>
      <use xlink:href="#LatinModernMath-Regular-6f" x="251.399933"/>
      <use xlink:href="#LatinModernMath-Regular-72" x="301.399918"/>
      <use xlink:href="#LatinModernMath-Regular-6d" x="340.599915"/>
      <use xlink:href="#LatinModernMath-Regular-61" x="423.899902"/>
      <use xlink:href="#LatinModernMath-Regular-6c" x="473.899887"/>
     </g>
    </g>
   </g>
  </g>
 </g>
 <defs>
  <clipPath id="p50e89fbce3">
   <rect x="53.38625" y="20.610937" width="334.8" height="221.76"/>
  </clipPath>
 </defs>
</svg>
